<ttFont>
          <CharString index="0">
            -74 callsubr
            248 vlineto
            104 -54 60 -105 -71 -64 -21 -44 -56 vhcurveto
            41 -59 rlineto
            39 33 61 20 49 hhcurveto
            64 19 -45 -55 hvcurveto
            -53 vlineto
            -116 -169 -20 -151 hvcurveto
            return
          </CharString>
          <CharString index="1">
            -1 -5 -2 -107 callsubr
            return
          </CharString>
          <CharString index="2">
            44 243 rmoveto
            -142 82 -114 149 60 61 17 39 47 vhcurveto
            -37 60 rlineto
            -28 -33 -53 -18 -43 hhcurveto
            -98 -47 104 85 hvcurveto
            10 270 vlineto
            40 11 29 35 116 -78 73 -115 -147 -69 -136 -130 hvcurveto
            return
          </CharString>
          <CharString index="3">
            -20 17 callsubr
            hintmask 10111110
            -76 callsubr
            hintmask 01111110
            -98 callsubr
            hintmask 10111110
            -106 callsubr
            return
          </CharString>
          <CharString index="4">
            51 callsubr
            hintmask 10111100
            -83 callsubr
            hintmask 01111100
            -90 callsubr
            hintmask 10111100
            -96 callsubr
            vlineto
            return
          </CharString>
          <CharString index="5">
            -29 41 hhcurveto
            32 35 19 11 29 hvcurveto
            -17 52 -1 -1 -3 -1 -5 -1 rlinecurve
            return
          </CharString>
          <CharString index="6">
            hstem
            44 88 232 89 vstem
            -105 callsubr
            return
          </CharString>
          <CharString index="7">
            -7 vvcurveto
            -26 -33 -27 -16 -18 vhcurveto
            11 -12 11 -11 12 -11 rrcurveto
            53 40 49 57 69 vvcurveto
            45 -27 40 -48 vhcurveto
            return
          </CharString>
          <CharString index="8">
            9 callsubr
            -135 77 -126 147 148 77 125 136 136 -77 125 -148 -145 -79 -128 -133 vhcurveto
            return
          </CharString>
          <CharString index="9">
            -39 7 23 -102 callsubr
            -16 -4 -14 -5 rlineto
            return
          </CharString>
          <CharString index="10">
            -43 -26 callsubr
            219 -20 -101 callsubr
            return
          </CharString>
          <CharString index="11">
            -73 callsubr
            -96 vlineto
            -45 callsubr
            -250 vlineto
            -76 -63 -51 -73 -76 -7 71 59 vhcurveto
            306 return
          </CharString>
          <CharString index="12">
            333 rmoveto
            -185 130 -160 192 -15 callsubr
            185 -130 161 -192 -29 callsubr
            hmoveto
            132 75 146 149 149 75 -145 -133 -133 -75 -144 -149 -148 -76 145 132 vhcurveto
            return
          </CharString>
          <CharString index="13">
            -31 25 -80 callsubr
            -25 -9 callsubr
            return
          </CharString>
          <CharString index="14">
            hstem
            44 88 273 88 vstem
            -99 callsubr
            return
          </CharString>
          <CharString index="15">
            -43 -54 callsubr
            220 -104 callsubr
            return
          </CharString>
          <CharString index="16">
            5 -5 3 -6 -100 callsubr
            return
          </CharString>
          <CharString index="17">
            -39 7 22 -102 callsubr
            -15 -4 rlineto
            return
          </CharString>
          <CharString index="18">
            -16 callsubr
            250 -103 callsubr
            return
          </CharString>
          <CharString index="19">
            hmoveto
            84 227 rlineto
            243 hlineto
            82 -227 rlineto
            103 hlineto
            -252 670 rlineto
            -91 hlineto
            -253 -670 rlineto
            return
          </CharString>
          <CharString index="20">
            rmoveto
            100 128 3 72 vhcurveto
            -32 vlineto
            -66 -50 -69 -71 -47 -32 20 44 vhcurveto
            return
          </CharString>
          <CharString index="21">
            85 33 113 103 102 35 -114 -84 -85 -33 -113 -104 -97 -39 119 79 vhcurveto
            return
          </CharString>
          <CharString index="22">
            -1 -12 callsubr
            218 -20 -93 callsubr
            return
          </CharString>
          <CharString index="23">
            -72 callsubr
            -37 -29 -29 -37 vhcurveto
            return
          </CharString>
          <CharString index="24">
            67 497 rmoveto
            -45 callsubr
            -274 vlineto
            -104 43 -73 109 57 57 32 40 39 vhcurveto
            return
          </CharString>
          <CharString index="25">
            728 rmoveto
            1 -1 1 -4 1 -7 4 -22 rcurveline
            5 -75 callsubr
            return
          </CharString>
          <CharString index="26">
            172 97 99 171 vhcurveto
            411 -77 -411 vlineto
            -117 -65 -84 -123 -120 -54 72 115 vhcurveto
            425 vlineto
            return
          </CharString>
          <CharString index="27">
            -26 103 callsubr
            -13 callsubr
            return
          </CharString>
          <CharString index="28">
            3 -15 -1 vvcurveto
            -360 vlineto
            -169 97 -87 168 -81 callsubr
            return
          </CharString>
          <CharString index="29">
            -31 26 -26 103 callsubr
            31 -26 -59 callsubr
            return
          </CharString>
          <CharString index="30">
            194 4 rmoveto
            -66 -24 -38 -88 -83 hhcurveto
            -11 -67 38 hlineto
            104 59 130 85 29 hvcurveto
            176 499 rlineto
            -78 hlineto
            -132 -378 -132 378 rlineto
            -90 hlineto
            return
          </CharString>
          <CharString index="31">
            44 120 rmoveto
            -83 57 -48 80 57 54 29 41 39 vhcurveto
            return
          </CharString>
          <CharString index="32">
            -22 rlineto
            1 -7 1 -3 0 vvcurveto
            -662 return
          </CharString>
          <CharString index="33">
            -1 -1 hhcurveto
            -19 -3 14 24 hvcurveto
            return
          </CharString>
          <CharString index="34">
            -16 -5 rlineto
            -1 -4 -34 callsubr
            400 return
          </CharString>
          <CharString index="35">
            0 callsubr
            36 30 30 36 -7 callsubr
            return
          </CharString>
          <CharString index="36">
            hstem
            60 85 148 86 vstem
            51 29 rmoveto
            -27 51 39 -15 59 hhcurveto
            93 86 38 107 hvcurveto
            155 -234 -20 111 vvcurveto
            53 56 15 43 31 39 -17 -19 25 vhcurveto
            29 64 rlineto
            24 -39 -47 11 -47 hhcurveto
            -88 -87 -45 -100 hvcurveto
            -152 233 20 -112 vvcurveto
            -56 -56 -14 -45 -35 -42 20 20 -29 vhcurveto
            return
          </CharString>
          <CharString index="37">
            47 332 rmoveto
            -184 131 -161 191 -15 callsubr
            186 -129 160 -193 -29 callsubr
            1 rmoveto
            132 76 145 148 149 75 -144 -133 -133 -75 -145 -149 -149 -75 146 132 vhcurveto
            return
          </CharString>
          <CharString index="38">
            93 callsubr
            71 669 -3 callsubr
            5 -21 rlineto
            4 -16 -79 callsubr
            return
          </CharString>
          <CharString index="39">
            rmoveto
            84 hlineto
            103 176 rlineto
            -68 hlineto
            -77 -103 -77 103 rlineto
            -69 hlineto
            endchar
          </CharString>
          <CharString index="40">
            5 -5 3 -5 -100 callsubr
            return
          </CharString>
          <CharString index="41">
            rmoveto
            61 11 52 67 67 hhcurveto
            61 35 -50 -57 -15 -1 -6 -16 hvcurveto
            return
          </CharString>
          <CharString index="42">
            -1 1 -4 1 -7 vhcurveto
            6 -22 4 return
          </CharString>
          <CharString index="43">
            vstem
            86 642 -63 callsubr
            345 -688 rmoveto
            155 388 154 387 rlineto
            -63 hlineto
            -153 -387 -155 -388 rlineto
            return
          </CharString>
          <CharString index="44">
            rmoveto
            8 -25 60 17 61 18 rlineto
            -345 -124 -59 304 59 -100 425 -50 vlineto
            -69 -31 -67 -24 -33 -11 rrcurveto
            return
          </CharString>
          <CharString index="45">
            -55 callsubr
            -5 -15 -11 -16 hhcurveto
            return
          </CharString>
          <CharString index="46">
            -20 callsubr
            hintmask 11010000
            -91 callsubr
            hintmask 11100000
            -4 callsubr
            endchar
          </CharString>
          <CharString index="47">
            hstem
            86 93 vstem
            72 728 -53 callsubr
            -75 callsubr
            return
          </CharString>
          <CharString index="48">
            26 -31 -37 callsubr
            return
          </CharString>
          <CharString index="49">
            47 493 rmoveto
            24 -35 9 -66 -40 vvcurveto
            -352 82 369 vlineto
            33 35 52 33 49 hhcurveto
            80 4 -68 -62 hvcurveto
            -305 82 35 callsubr
            -59 -56 -35 -40 -40 vhcurveto
            -3 24 -7 24 -9 23 return
          </CharString>
          <CharString index="50">
            rmoveto
            76 81 -39 callsubr
            41 callsubr
            return
          </CharString>
          <CharString index="51">
            rmoveto
            -84 callsubr
            return
          </CharString>
          <CharString index="52">
            50 -42 callsubr
            -47 hlineto
            -15 return
          </CharString>
          <CharString index="53">
            -11 70 -47 -21 235 65 153 65 return
          </CharString>
          <CharString index="54">
            rmoveto
            -65 callsubr
            return
          </CharString>
          <CharString index="55">
            rmoveto
            78 hlineto
            -95 -38 callsubr
            return
          </CharString>
          <CharString index="56">
            -43 67 rlineto
            -39 -45 -73 -23 -59 hhcurveto
            -172 -67 142 155 149 65 159 172 57 71 -24 -43 40 hvcurveto
            52 58 rlineto
            55 -47 -102 24 -69 hhcurveto
            -219 -122 -163 -209 hvcurveto
            endchar
          </CharString>
          <CharString index="57">
            -5 5 -3 6 7 vvcurveto
            26 33 27 16 18 vhcurveto
            -11 12 -11 11 -12 11 rrcurveto
            -53 -40 -49 -57 -69 vvcurveto
            return
          </CharString>
          <CharString index="58">
            80 callsubr
            94 vstem
            72 668 -53 callsubr
            -20 rlineto
            1 -7 26 callsubr
            -603 423 69 -329 237 -19 callsubr
            return
          </CharString>
          <CharString index="59">
            -33 callsubr
            -96 -152 rlineto
            return
          </CharString>
          <CharString index="60">
            rmoveto
            -44 callsubr
          </CharString>
          <CharString index="61">
            -38 63 rlineto
            -29 -42 -28 -15 -51 7 callsubr
            49 26 -12 -32 37 hvcurveto
            45 58 rlineto
            29 -39 -57 22 -48 hhcurveto
            -152 -86 -116 -145 hvcurveto
            endchar
          </CharString>
          <CharString index="62">
            -5 13 -52 -2 vvcurveto
            return
          </CharString>
          <CharString index="63">
            -86 callsubr
            endchar
          </CharString>
          <CharString index="64">
            -6 12 -50 -3 vvcurveto
            -438 83 497 return
          </CharString>
          <CharString index="65">
            43 -39 56 hhcurveto
            53 27 54 45 5 hvcurveto
            return
          </CharString>
          <CharString index="66">
            64 callsubr
            -5 1 -7 vhcurveto
            6 -21 4 -21 -17 callsubr
            -604 423 69 -329 238 -19 callsubr
            return
          </CharString>
          <CharString index="67">
            31 26 26 31 return
          </CharString>
          <CharString index="68">
            79 -82 rlineto
            69 -2 callsubr
            return
          </CharString>
          <CharString index="69">
            152 rlineto
            44 callsubr
            return
          </CharString>
          <CharString index="70">
            -31 -26 -9 callsubr
            return
          </CharString>
          <CharString index="71">
            -67 callsubr
            hintmask 11101000
            -4 callsubr
            return
          </CharString>
          <CharString index="72">
            -91 callsubr
            hintmask 11101000
            -4 callsubr
            return
          </CharString>
          <CharString index="73">
            -2 -74 callsubr
            return
          </CharString>
          <CharString index="74">
            rmoveto
            140 77 callsubr
            return
          </CharString>
          <CharString index="75">
            -25 13 -15 12 -12 vhcurveto
            17 return
          </CharString>
          <CharString index="76">
            rmoveto
            -1 1 -6 3 -11 vhcurveto
            9 -36 7 -28 6 -29 1 -4 rlinecurve
            29 hlineto
            1 return
          </CharString>
          <CharString index="77">
            27 21 21 27 27 21 -21 -27 -27 -21 -21 -27 -27 -21 21 27 vhcurveto
            endchar
          </CharString>
          <CharString index="78">
            -192 -130 -161 -185 vhcurveto
            98 return
          </CharString>
          <CharString index="79">
            -43 callsubr
            vlineto
            endchar
          </CharString>
          <CharString index="80">
            -45 28 -40 48 35 26 25 35 25 -13 15 -12 12 vhcurveto
            -17 16 rlineto
            return
          </CharString>
          <CharString index="81">
            -13 70 199 62 128 63 return
          </CharString>
          <CharString index="82">
            rmoveto
            96 -260 rlineto
            -192 hlineto
            return
          </CharString>
          <CharString index="83">
            144 55 162 169 169 56 -161 -144 -144 -55 -162 -170 -169 -55 162 143 vhcurveto
            endchar
          </CharString>
          <CharString index="84">
            1 -6 26 callsubr
            return
          </CharString>
          <CharString index="85">
            248 300 rmoveto
            -300 95 300 vlineto
            210 369 rlineto
            -88 hlineto
            -157 -284 -169 284 rlineto
            -107 hlineto
            return
          </CharString>
          <CharString index="86">
            hstem
            402 hmoveto
            11 63 rlineto
            -270 hlineto
            258 386 rlineto
            48 -346 -64 234 vlineto
            -257 -386 rlineto
            -47 vlineto
            return
          </CharString>
          <CharString index="87">
            64 rmoveto
            -32 callsubr
            -16 rlineto
            return
          </CharString>
          <CharString index="88">
            255 70 -255 224 329 68 vlineto
            return
          </CharString>
          <CharString index="89">
            rmoveto
            140 -38 callsubr
            -95 67 callsubr
          </CharString>
          <CharString index="90">
            rlineto
            -23 callsubr
            return
          </CharString>
          <CharString index="91">
            16 -13 74 -49 -21 506 -20 return
          </CharString>
          <CharString index="92">
            192 130 160 185 return
          </CharString>
          <CharString index="93">
            -1 1 -4 2 -7 vhcurveto
            return
          </CharString>
          <CharString index="94">
            -8 callsubr
            -31 return
          </CharString>
          <CharString index="95">
            -13 63 396 63 return
          </CharString>
          <CharString index="96">
            -31 callsubr
            2 1 7 3 12 10 return
          </CharString>
          <CharString index="97">
            129 -22 64 41 -64 48 -129 -25 27 154 -52 82 -47 -82 26 -154 -126 25 -66 -44 return
          </CharString>
          <CharString index="98">
            -26 -31 vhcurveto
            return
          </CharString>
          <CharString index="99">
            32 -25 25 -32 return
          </CharString>
          <CharString index="100">
            36 -30 30 -36 return
          </CharString>
          <CharString index="101">
            39 -53 hhcurveto
            -54 -35 -51 -49 -5 hvcurveto
            return
          </CharString>
          <CharString index="102">
            21 -21 497 -20 return
          </CharString>
          <CharString index="103">
            -35 -27 -25 -35 hvcurveto
            return
          </CharString>
          <CharString index="104">
            rmoveto
            -14 callsubr
            return
          </CharString>
          <CharString index="105">
            hlineto
            78 callsubr
            return
          </CharString>
          <CharString index="106" raw="1">
            15f720f7 2c050b  
          </CharString>
          <CharString index="107">
            -36 30 -30 36 return
          </CharString>
          <CharString index="108">
            hvcurveto
            36 callsubr
            22 -87 -51 -48 -20 -88 40 callsubr
            return
          </CharString>
          <CharString index="109">
            73 hlineto
            199 105 -84 -211 -162 -63 -133 -182 hvcurveto
            -132 hlineto
            endchar
          </CharString>
          <CharString index="110">
            hstem
            52 100 233 100 vstem
            32 42 rmoveto
            -33 64 67 -21 72 hhcurveto
            132 118 return
          </CharString>
          <CharString index="111">
            71 52 48 -19 -31 43 vhcurveto
            46 67 rlineto
            35 -57 -64 19 -67 hhcurveto
            -113 -115 return
          </CharString>
          <CharString index="112">
            rmoveto
            0 callsubr
            37 29 29 37 12 callsubr
          </CharString>
          <CharString index="113">
            hmoveto
            11 callsubr
          </CharString>
          <CharString index="114">
            hhcurveto
            -100 -41 117 84 79 41 108 95 return
          </CharString>
          <CharString index="115">
            -21 105 callsubr
            hstemhm
            return
          </CharString>
          <CharString index="116">
            44 248 rmoveto
            return
          </CharString>
          <CharString index="117">
            47 15 callsubr
            -22 11 12 -23 hvcurveto
            -24 -46 rlineto
            return
          </CharString>
          <CharString index="118">
            -94 callsubr
            endchar
          </CharString>
          <CharString index="119">
            81 callsubr
            endchar
          </CharString>
          <CharString index="120">
            237 vlineto
            225 105 151 211 264 -151 102 -243 hvcurveto
            return
          </CharString>
          <CharString index="121">
            -66 callsubr
            endchar
          </CharString>
          <CharString index="122">
            hlineto
            23 15 -12 -23 -23 -21 -16 -23 -19 return
          </CharString>
          <CharString index="123">
            94 21 -21 227 68 return
          </CharString>
          <CharString index="124">
            hstemhm
            44 85 200 83 return
          </CharString>
          <CharString index="125">
            93 0 70 432 -20 hstem
            564 hmoveto
            70 -498 -70 vlineto
            498 return
          </CharString>
          <CharString index="126">
            -14 callsubr
            4 -22 5 34 callsubr
            return
          </CharString>
          <CharString index="127">
            -65 callsubr
            34 callsubr
            return
          </CharString>
          <CharString index="128">
            99 216 61 hstem
            564 216 rmoveto
            61 -492 -61 vlineto
            endchar
          </CharString>
          <CharString index="129">
            -287 -5 callsubr
            return
          </CharString>
          <CharString index="130">
            -19 12 rlineto
            -14 -6 -35 -47 -46 hhcurveto
            -18 -17 4 7 -16 hvcurveto
            -50 return
          </CharString>
          <CharString index="131">
            48 25 callsubr
            -95 -151 rlineto
            endchar
          </CharString>
          <CharString index="132">
            rmoveto
            140 151 rlineto
            -122 hlineto
            return
          </CharString>
          <CharString index="133">
            1 -3 -1 vvcurveto
            return
          </CharString>
          <CharString index="134">
            137 -87 87 return
          </CharString>
          <CharString index="135">
            -106 155 rlineto
            return
          </CharString>
          <CharString index="136">
            -6 0 -8 -1 -9 vhcurveto
            -29 vlineto
            -2 -30 rlineto
            -27 vlineto
            -120 return
          </CharString>
          <CharString index="137">
            -5 -24 -6 -29 -22 -7 -25 -2 -24 -2 rcurveline
            -52 vlineto
            endchar
          </CharString>
          <CharString index="138">
            22 callsubr
            251 63 callsubr
            return
          </CharString>
          <CharString index="139">
            696 rmoveto
            76 82 85 callsubr
            return
          </CharString>
          <CharString index="140">
            rmoveto
            15 10 31 46 46 hhcurveto
            18 17 -4 -7 16 hvcurveto
            49 return
          </CharString>
          <CharString index="141">
            -22 -17 callsubr
            return
          </CharString>
          <CharString index="142">
            332 vlineto
            104 -43 73 -109 return
          </CharString>
          <CharString index="143">
            75 -4 rmoveto
            50 26 90 64 64 return
          </CharString>
          <CharString index="144">
            73 -34 34 -34 73 hstemhm
            return
          </CharString>
          <CharString index="145">
            rmoveto
            70 -499 -70 vlineto
            return
          </CharString>
          <CharString index="146">
            21 55 callsubr
            hstem
            return
          </CharString>
          <CharString index="147">
            -64 -64 -28 82 52 vhcurveto
            return
          </CharString>
          <CharString index="148">
            -102 -154 rlineto
            return
          </CharString>
          <CharString index="149">
            36 58 vvcurveto
            70 -68 20 -60 -60 -72 -26 -36 -45 vhcurveto
            return
          </CharString>
          <CharString index="150">
            -98 108 103 56 105 92 95 -58 98 -105 -112 return
          </CharString>
          <CharString index="151">
            -123 hlineto
            return
          </CharString>
          <CharString index="152">
            70 hstem
            46 99 449 97 vstem
            46 363 rmoveto
            return
          </CharString>
          <CharString index="153">
            hstem
            529 hmoveto
            8 69 rlineto
            -391 hlineto
            378 return
          </CharString>
          <CharString index="154">
            -32 -25 -25 -32 vhcurveto
            106 callsubr
            -31 26 -26 31 return
          </CharString>
          <CharString index="155">
            53 46 46 53 56 -43 44 -56 -53 -46 -46 -54 return
          </CharString>
          <CharString index="156">
            -188 -135 47 366 45 366 47 hstemhm
            return
          </CharString>
          <CharString index="157">
            rmoveto
            15 7 10 12 17 hhcurveto
            return
          </CharString>
          <CharString index="158">
            -20 hstemhm
            80 83 219 83 return
          </CharString>
          <CharString index="159">
            503 8 callsubr
            return
          </CharString>
          <CharString index="160">
            16 77 59 -56 22 -48 hvcurveto
            return
          </CharString>
          <CharString index="161">
            154 116 152 -61 return
          </CharString>
          <CharString index="162">
            -21 728 -20 return
          </CharString>
          <CharString index="163">
            80 callsubr
            95 return
          </CharString>
          <CharString index="164">
            rmoveto
            261 8 60 111 72 vvcurveto
            67 -54 return
          </CharString>
          <CharString index="165">
            -33 -37 18 -45 hhcurveto
            -75 -48 -73 -21 -11 hvcurveto
            return
          </CharString>
          <CharString index="166">
            31 20 -21 435 63 210 62 hstem
            95 return
          </CharString>
          <CharString index="167">
            -40 -47 39 -54 hhcurveto
            -55 -31 -51 -49 -8 hvcurveto
            return
          </CharString>
          <CharString index="168">
            35 34 -18 47 hhcurveto
            74 50 73 21 11 hvcurveto
            return
          </CharString>
          <CharString index="169">
            -21 326 -20 hstem
            return
          </CharString>
          <CharString index="170">
            -20 hstem
            84 83 vstem
            return
          </CharString>
          <CharString index="171">
            669 rmoveto
            -1 1 return
          </CharString>
          <CharString index="172">
            113 50 113 return
          </CharString>
          <CharString index="173">
            78 -82 rlineto
            70 hlineto
            return
          </CharString>
          <CharString index="174">
            -152 rlineto
            endchar
          </CharString>
          <CharString index="175">
            rmoveto
            -435 82 435 125 vlineto
            18 return
          </CharString>
          <CharString index="176">
            rmoveto
            77 hlineto
            -95 77 callsubr
            return
          </CharString>
          <CharString index="177">
            hlineto
            -328 -670 rlineto
            64 hlineto
            355 return
          </CharString>
          <CharString index="178">
            46 521 rmoveto
            -99 61 -98 108 101 return
          </CharString>
          <CharString index="179">
            -33 28 -27 33 33 27 27 33 33 -27 return
          </CharString>
          <CharString index="180">
            hhcurveto
            -219 -106 -169 -204 hvcurveto
            98 return
          </CharString>
          <CharString index="181">
            132 rmoveto
            -110 80 110 58 vlineto
            return
          </CharString>
          <CharString index="182">
            rlineto
            67 -467 -69 356 vlineto
            -378 return
          </CharString>
          <CharString index="183">
            -4 rmoveto
            52 27 88 64 64 21 -89 -49 return
          </CharString>
          <CharString index="184">
            152 rlineto
            -122 hlineto
            return
          </CharString>
          <CharString index="185">
            28 callsubr
            -83 hlineto
            return
          </CharString>
          <CharString index="186">
            68 555 68 return
          </CharString>
          <CharString index="187">
            -20 hstem
            86 return
          </CharString>
          <CharString index="188">
            101 callsubr
            -30 -30 -36 vhcurveto
            return
          </CharString>
          <CharString index="189">
            35 26 26 35 33 -28 28 -33 -33 return
          </CharString>
          <CharString index="190">
            12 0 69 238 70 224 68 return
          </CharString>
          <CharString index="191">
            12 0 69 237 70 224 68 return
          </CharString>
          <CharString index="192">
            66 callsubr
            28 callsubr
            return
          </CharString>
          <CharString index="193">
            93 17 -21 507 -20 hstem
            564 return
          </CharString>
          <CharString index="194">
            -231 -117 -21 881 -20 hstem
            return
          </CharString>
          <CharString index="195">
            -5 59 -46 -21 337 59 274 return
          </CharString>
          <CharString index="196">
            rlineto
            -84 hlineto
            41 callsubr
            endchar
          </CharString>
          <CharString index="197">
            114 hstemhm
            return
          </CharString>
          <CharString index="198">
            rlineto
            -1 -3 -1 -2 -1 vvcurveto
            -7 return
          </CharString>
          <CharString index="199">
            126 22 -6 -33 -9 -45 rlineto
            return
          </CharString>
          <CharString index="200">
            56 callsubr
            362 77 vstem
            return
          </CharString>
          <CharString index="201">
            163 -61 -12 116 -151 return
          </CharString>
          <CharString index="202">
            3 11 1 6 1 vvcurveto
            178 return
          </CharString>
          <CharString index="203">
            hhcurveto
            52 62 -9 -64 -72 -87 -52 return
          </CharString>
          <CharString index="204">
            -602 95 668 return
          </CharString>
          <CharString index="205">
            -220 51 74 49 return
          </CharString>
          <CharString index="206">
            vstem
            9 callsubr
            return
          </CharString>
          <CharString index="207">
            113 50 114 return
          </CharString>
          <CharString index="208">
            -7 callsubr
            -36 return
          </CharString>
          <CharString index="209">
            -20 hstem
            215 80 return
          </CharString>
          <CharString index="210">
            31 -40 callsubr
            return
          </CharString>
          <CharString index="211">
            21 -21 435 74 return
          </CharString>
          <CharString index="212">
            251 -20 return
          </CharString>
          <CharString index="213">
            163 hmoveto
            return
          </CharString>
        <CharString name=".notdef">
          463 endchar
        </CharString>
        <CharString name="A">
          94 21 -21 250 68 410 -20 hstem
          102 hmoveto
          85 250 rlineto
          240 hlineto
          84 -250 rlineto
          103 hlineto
          -252 728 rlineto
          -91 hlineto
          -253 -728 rlineto
          290 606 rmoveto
          96 -288 rlineto
          -194 hlineto
          endchar
        </CharString>
        <CharString name="AE">
          257 0 71 177 72 18 72 250 68 hstem
          390 92 vstem
          97 hmoveto
          114 248 rlineto
          179 -248 357 71 -265 267 234 72 -234 250 265 68 -448 hlineto
          14 -65 -301 -663 rlineto
          378 641 rmoveto
          -321 -147 vlineto
          endchar
        </CharString>
        <CharString name="Aacute">
          16 callsubr
          572 -20 hstem
          107 -88 callsubr
          290 555 -25 callsubr
          137 421 25 callsubr
          -96 -151 rlineto
          endchar
        </CharString>
        <CharString name="Acircumflex">
          16 callsubr
          556 -20 hstem
          102 -88 callsubr
          220 32 callsubr
          -83 hlineto
          -102 -155 rlineto
          137 -141 -25 callsubr
          endchar
        </CharString>
        <CharString name="Adieresis">
          16 callsubr
          422 114 hstem
          180 114 49 114 vstem
          102 -88 callsubr
          162 774 rmoveto
          -78 callsubr
          128 -219 -25 callsubr
          131 479 rmoveto
          -78 callsubr
          endchar
        </CharString>
        <CharString name="Agrave">
          16 callsubr
          578 -20 hstem
          102 -88 callsubr
          277 721 -52 callsubr
          153 -318 -25 callsubr
          endchar
        </CharString>
        <CharString name="Aring">
          94 21 -21 226 68 489 51 hstem
          215 50 96 50 vstem
          102 hmoveto
          84 226 rlineto
          243 hlineto
          82 -226 rlineto
          103 hlineto
          -246 653 rlineto
          28 17 15 33 32 vvcurveto
          56 -41 43 -56 -56 -43 -43 -56 -35 17 -33 31 -17 vhcurveto
          -245 -650 rlineto
          290 554 -25 callsubr
          53 441 rmoveto
          -30 callsubr
        </CharString>
        <CharString name="Atilde">
          16 callsubr
          445 34 -34 73 hstemhm
          hintmask 11100000
          102 -88 callsubr
          197 713 rmoveto
          15 4 14 12 15 51 -42 callsubr
          -48 hlineto
          -15 -5 -14 -11 -16 hhcurveto
          hintmask 11010000
          60 callsubr
          143 -158 -25 callsubr
          endchar
        </CharString>
        <CharString name="B">
          77 0 69 289 69 232 69 hstemhm
          85 93 260 97 -66 66 -66 99 hintmask 11110010
          71 -82 callsubr
          198 vlineto
          142 143 31 173 98 -57 79 -99 16 hvcurveto
          hintmask 11110100
          77 13 46 74 75 vvcurveto
          135 -107 34 -114 vhcurveto
          -136 -370 rmoveto
          111 hlineto
          87 93 -38 -101 -120 -76 -30 -104 hvcurveto
          -111 hlineto
          590 vmoveto
          133 hlineto
          hintmask 11111000
          68 59 -23 -79 -99 -61 -31 -92 hvcurveto
          -107 hlineto
          endchar
        </CharString>
        <CharString name="C">
          87 -12 75 605 70 hstem
          46 102 vstem
          46 366 rmoveto
          -204 119 -174 220 69 98 23 47 55 vhcurveto
          -51 callsubr
        </CharString>
        <CharString name="CR">
          -537 endchar
        </CharString>
        <CharString name="Ccedilla">
          87 98 callsubr
          34 75 605 70 hstem
          46 102 250 83 vstem
          46 366 rmoveto
          -189 103 -162 188 -24 vhcurveto
          -38 -68 91 callsubr
          8 -5 7 vhcurveto
          48 15 callsubr
          -24 11 12 -21 hvcurveto
          -25 -46 rlineto
          -17 27 31 -11 28 hhcurveto
          59 71 53 callsubr
          -12 hlineto
          18 34 rlineto
          71 98 23 47 55 hvcurveto
          -51 callsubr
        </CharString>
        <CharString name="D">
          162 0 69 590 69 hstem
          86 93 377 97 vstem
          72 728 -53 callsubr
          -75 callsubr
          13 callsubr
          -80 -69 rmoveto
          2 callsubr
        </CharString>
        <CharString name="E">
          12 0 69 271 68 251 69 -60 callsubr
          423 69 -330 271 256 68 -256 251 330 69 -437 vlineto
          endchar
        </CharString>
        <CharString name="Eacute">
          84 callsubr
          201 -49 callsubr
          -172 49 -18 callsubr
        </CharString>
        <CharString name="Ecircumflex">
          83 callsubr
          -68 250 hstemhm
          86 94 hintmask 11101000
          72 -41 callsubr
          -288 27 rmoveto
          77 82 66 callsubr
          hintmask 11011000
          28 callsubr
          -84 hlineto
          -102 -155 rlineto
          endchar
        </CharString>
        <CharString name="Edieresis">
          83 callsubr
          52 90 callsubr
          84 94 -13 100 callsubr
          hintmask 11111010
          70 -41 callsubr
          hintmask 11110110
          -342 109 rmoveto
          -32 25 -25 32 31 25 26 31 31 -25 -59 callsubr
          106 callsubr
          -32 25 -25 32 -40 callsubr
          31 -26 -59 callsubr
          endchar
        </CharString>
        <CharString name="Egrave">
          84 callsubr
          205 -49 callsubr
          -239 53 69 callsubr
          endchar
        </CharString>
        <CharString name="Eth">
          177 0 69 262 64 264 69 hstem
          89 93 377 97 vstem
          89 331 rmoveto
          -331 13 callsubr
          -187 hlineto
          19 callsubr
          -267 -81 -64 vlineto
          174 hmoveto
          155 64 -155 264 2 callsubr
        </CharString>
        <CharString name="Euro">
          -13 -10 64 123 42 67 42 128 62 hstem
          108 177 rmoveto
          -109 27 83 -78 140 hhcurveto
          39 37 7 13 36 hvcurveto
          -22 63 rlineto
          -13 -26 -29 -6 -33 hhcurveto
          -92 -51 54 69 -20 hvcurveto
          193 hlineto
          9 42 rlineto
          -211 hlineto
          -1 11 -1 12 12 vvcurveto
          20 vlineto
          4 0 4 1 4 vhcurveto
          227 hlineto
          9 42 rlineto
          -228 hlineto
          71 18 47 57 96 hhcurveto
          31 33 -5 -15 27 hvcurveto
          15 65 rlineto
          11 -35 -40 6 -31 hhcurveto
          -137 -87 -79 -111 -26 hvcurveto
          -60 hlineto
          -9 -42 rlineto
          63 hlineto
          -1 -5 0 -6 -5 vvcurveto
          -15 vlineto
          -18 vlineto
          -6 1 -6 1 -6 vhcurveto
          -79 hlineto
          -9 -42 rlineto
          endchar
        </CharString>
        <CharString name="F">
          -27 21 -21 340 68 251 69 -60 callsubr
          93 340 235 68 -235 251 296 69 -403 vlineto
          endchar
        </CharString>
        <CharString name="G">
          -12 74 -41 -21 307 68 291 72 hstemhm
          47 98 403 94 hintmask 10111100
          47 355 rmoveto
          -195 101 -172 211 87 63 24 64 60 vhcurveto
          hintmask 01111100
          32 -76 rlineto
          50 hlineto
          -3 56 -6 54 56 vvcurveto
          209 -261 vlineto
          -12 -68 rlineto
          179 -66 hlineto
          hintmask 10111100
          -103 -69 -76 -104 -171 -59 155 147 155 65 147 175 83 40 -23 -50 63 vhcurveto
          53 62 rlineto
          58 -55 -107 25 -77 hhcurveto
          -227 -111 -170 -213 hvcurveto
          endchar
        </CharString>
        <CharString name="H">
          177 21 -21 344 68 316 -20 hstem
          87 93 354 93 vstem
          73 -82 callsubr
          93 344 354 -344 93 728 -93 -316 -354 316 -107 vlineto
          endchar
        </CharString>
        <CharString name="I">
          -269 39 callsubr
          87 93 vstem
          73 -82 callsubr
          93 728 -107 vlineto
          endchar
        </CharString>
        <CharString name="Iacute">
          -267 21 -21 867 80 callsubr
          94 vstem
          148 716 rmoveto
          140 151 rlineto
          44 callsubr
          -95 -151 rlineto
          16 -113 rmoveto
          -603 94 669 -109 vlineto
          endchar
        </CharString>
        <CharString name="Icircumflex">
          -267 21 -21 851 56 callsubr
          vstem
          53 32 callsubr
          -84 hlineto
          -102 -155 rlineto
          101 -94 rmoveto
          97 callsubr
          -110 vlineto
          endchar
        </CharString>
        <CharString name="Idieresis">
          -267 21 -21 721 90 callsubr
          -7 114 -22 95 -24 114 hintmask 11101000
          -7 778 rmoveto
          -78 callsubr
          78 -110 -3 callsubr
          4 -22 5 -22 rlineto
          hintmask 11010000
          -23 callsubr
          97 callsubr
          vlineto
          hintmask 11101000
          -24 110 rmoveto
          -31 26 -26 31 32 25 25 32 31 -26 -59 callsubr
          endchar
        </CharString>
        <CharString name="Igrave">
          -269 21 -21 871 56 callsubr
          vstem
          104 719 69 callsubr
          108 -203 rmoveto
          20 callsubr
          97 callsubr
          vlineto
          endchar
        </CharString>
        <CharString name="J">
          -269 -190 -21 939 -20 hstem
          88 93 vstem
          -11 -211 rmoveto
          163 16 29 116 140 vvcurveto
          667 -108 vlineto
          15 -66 rlineto
          -607 vlineto
          -85 -6 -113 -105 -16 vhcurveto
          endchar
        </CharString>
        <CharString name="K">
          46 21 -21 728 -20 -60 callsubr
          93 379 vlineto
          288 -379 rlineto
          116 hlineto
          -305 404 287 324 rlineto
          -97 hlineto
          -289 -325 rlineto
          325 -107 vlineto
          endchar
        </CharString>
        <CharString name="L">
          -23 0 69 659 -20 -60 callsubr
          399 69 -306 659 -107 vlineto
          endchar
        </CharString>
        <CharString name="Lslash">
          -44 0 69 659 -20 hstemhm
          8 171 -93 93 hintmask 11010000
          86 277 rmoveto
          -277 399 69 -306 251 vlineto
          206 96 rlineto
          69 vlineto
          -206 -96 rlineto
          339 -107 vlineto
          20 callsubr
          -316 vlineto
          hintmask 11100000
          -78 -36 rlineto
          -69 vlineto
          endchar
        </CharString>
        <CharString name="M">
          301 20 -21 22 55 callsubr
          hstemhm
          89 76 494 92 hintmask 01111000
          89 662 rmoveto
          -662 76 595 vlineto
          hintmask 10111000
          219 -596 rlineto
          56 hlineto
          219 596 rlineto
          hintmask 01111000
          -595 92 728 -121 vlineto
          -209 -567 -212 567 rlineto
          -135 hlineto
          endchar
        </CharString>
        <CharString name="N">
          177 16 -21 26 55 callsubr
          hstemhm
          87 76 388 76 hintmask 01111000
          73 -82 callsubr
          76 615 vlineto
          hintmask 10111000
          405 -620 rlineto
          59 733 -76 -545 hlineto
          -354 545 rlineto
          -124 hlineto
          endchar
        </CharString>
        <CharString name="NULL">
          -537 endchar
        </CharString>
        <CharString name="Ntilde">
          177 15 -21 27 -21 700 73 -34 34 -34 74 hstemhm
          87 77 387 76 hintmask 01100110
          73 668 rmoveto
          19 callsubr
          -602 77 557 vlineto
          hintmask 10010110
          404 -563 rlineto
          59 674 -76 -488 hlineto
          -354 488 rlineto
          63 45 rmoveto
          15 5 14 11 15 hhcurveto
          hintmask 01100110
          -62 callsubr
          hintmask 01001110
          -40 -47 40 -54 hhcurveto
          -54 -34 -51 -49 -5 hvcurveto
          endchar
        </CharString>
        <CharString name="O">
          200 -11 68 611 45 callsubr
          -199 106 -175 216 218 105 174 200 199 -103 176 -219 -220 -103 -175 -200 vhcurveto
          99 -1 rmoveto
          -24 callsubr
        </CharString>
        <CharString name="OE">
          511 -12 70 -58 58 -58 71 267 72 259 59 9 -20 hstemhm
          51 98 449 94 hintmask 10011011
          51 364 rmoveto
          -197 100 -179 219 88 79 31 75 61 vhcurveto
          hintmask 01011011
          -94 423 vlineto
          hintmask 00111011
          71 -329 267 255 72 -255 248 329 70 -422 -95 vlineto
          hintmask 10010111
          76 -59 -77 28 -87 73 callsubr
          -1 rmoveto
          hintmask 10011011
          -24 callsubr
        </CharString>
        <CharString name="Oacute">
          200 -12 79 callsubr
          191 -20 hstem
          47 98 448 98 vstem
          47 -95 callsubr
          242 385 -18 callsubr
        </CharString>
        <CharString name="Ocircumflex">
          200 -13 79 callsubr
          -68 239 hstemhm
          47 98 448 98 hintmask 11011000
          -70 callsubr
          143 361 rmoveto
          76 82 79 -82 rlineto
          69 hlineto
          hintmask 10111000
          78 callsubr
          -102 -155 rlineto
          endchar
        </CharString>
        <CharString name="Odieresis">
          200 -12 79 callsubr
          38 114 hstem
          47 98 83 114 49 114 88 98 vstem
          47 -95 callsubr
          83 441 rmoveto
          -78 callsubr
          106 callsubr
          -78 callsubr
          endchar
        </CharString>
        <CharString name="Ograve">
          200 -13 79 callsubr
          194 -20 hstem
          47 98 448 98 vstem
          -70 callsubr
          188 387 -52 callsubr
          endchar
        </CharString>
        <CharString name="Oslash">
          199 -36 -21 44 68 613 68 31 -20 hstem
          46 98 448 98 vstem
          46 363 rmoveto
          -104 24 -104 72 -77 vhcurveto
          -68 -102 52 -33 63 96 rlineto
          -36 52 60 -16 64 hhcurveto
          216 109 174 200 105 -28 109 -74 77 hvcurveto
          55 84 -54 31 -50 -77 rlineto
          32 -51 -57 14 -60 73 callsubr
          3 rmoveto
          143 56 159 168 47 45 -13 -31 35 vhcurveto
          -151 -234 -152 -232 rlineto
          -37 63 -11 73 72 vvcurveto
          241 -25 rmoveto
          154 234 rlineto
          41 -64 12 -80 -76 vvcurveto
          -141 -54 -159 -168 -52 -47 16 36 -39 vhcurveto
          endchar
        </CharString>
        <CharString name="Otilde">
          199 -12 79 callsubr
          23 37 callsubr
          46 98 448 98 hintmask 11010110
          46 -95 callsubr
          121 381 50 callsubr
          hintmask 11100110
          50 43 -39 56 hhcurveto
          52 29 54 45 5 hvcurveto
          -48 hlineto
          -15 -5 -15 -11 -16 hhcurveto
          hintmask 11001110
          -38 -49 -6 callsubr
          endchar
        </CharString>
        <CharString name="P">
          38 21 -21 288 68 303 69 hstem
          86 93 258 97 vstem
          86 662 rmoveto
          -662 93 288 111 vlineto
          136 108 74 146 156 -101 64 -144 hvcurveto
          -218 hlineto
          108 -69 rmoveto
          110 hlineto
          96 52 -56 -95 -92 -57 -60 -92 hvcurveto
          -109 hlineto
          endchar
        </CharString>
        <CharString name="Q">
          200 -222 64 826 45 callsubr
          -177 74 -148 187 -43 vhcurveto
          67 -15 23 -5 21 -8 20 -9 rlinecurve
          64 -30 80 -38 88 -40 rlineto
          -39 92 97 -33 76 hhcurveto
          93 58 20 27 69 hvcurveto
          -16 48 rlineto
          -14 -46 -82 -17 -42 hhcurveto
          -94 -143 56 50 -104 hvcurveto
          -70 34 -50 25 -9 3 -3 1 -2 2 -1 1 rlinecurve
          141 59 57 147 143 vvcurveto
          197 -103 178 -219 -220 -103 -176 -199 vhcurveto
          99 -1 rmoveto
          146 56 160 168 168 57 -158 -147 -148 -57 -158 -168 -167 -57 161 144 vhcurveto
          endchar
        </CharString>
        <CharString name="R">
          54 21 -21 327 68 264 69 hstem
          85 93 259 97 vstem
          71 -82 callsubr
          93 327 50 vlineto
          39 hlineto
          13 12 1 1 11 hvcurveto
          188 -329 rlineto
          108 hlineto
          -204 346 rlineto
          76 24 63 76 81 vvcurveto
          156 -107 45 -139 vhcurveto
          -110 -69 rmoveto
          110 hlineto
          77 72 -41 -85 -110 -80 -28 -99 hvcurveto
          -80 hlineto
          endchar
        </CharString>
        <CharString name="S">
          -21 -12 72 607 71 3 callsubr
          66 144 hvcurveto
          240 -333 -37 155 vvcurveto
          77 56 34 4 callsubr
          -65 -125 hvcurveto
          -229 333 57 -191 vvcurveto
          -89 -80 -36 -67 -59 -67 25 39 -44 vhcurveto
          -36 -82 rlineto
          endchar
        </CharString>
        <CharString name="Scaron">
          -21 -12 72 548 71 194 -20 3 callsubr
          63 139 hvcurveto
          212 -333 -34 140 vvcurveto
          68 56 32 4 callsubr
          -63 -116 hvcurveto
          -209 333 57 -171 vvcurveto
          -83 -80 -34 -67 -59 -67 25 39 -44 vhcurveto
          154 573 -68 callsubr
        </CharString>
        <CharString name="T">
          41 21 -21 659 69 hstem
          240 95 vstem
          240 659 rmoveto
          -659 95 659 219 69 -530 -69 vlineto
          endchar
        </CharString>
        <CharString name="Thorn">
          38 22 -21 182 68 291 69 117 -20 hstem
          89 93 253 98 vstem
          89 662 rmoveto
          -661 93 182 101 vlineto
          134 116 68 149 156 -110 55 -141 hvcurveto
          -99 117 -109 hlineto
          108 -186 rmoveto
          108 hlineto
          96 49 -54 -88 -88 -55 -61 -91 hvcurveto
          -107 hlineto
          endchar
        </CharString>
        <CharString name="U">
          -12 69 671 93 callsubr
          86 662 rmoveto
          -418 vlineto
          -169 97 -87 168 172 97 99 171 vhcurveto
          470 -77 -470 vlineto
          -120 -64 -81 -124 -120 -54 72 115 vhcurveto
          484 -110 vlineto
          endchar
        </CharString>
        <CharString name="Uacute">
          -12 69 811 -69 callsubr
          211 24 callsubr
        </CharString>
        <CharString name="Ucircumflex">
          -12 69 793 -69 callsubr
          101 27 rmoveto
          76 81 78 -81 rlineto
          68 hlineto
          -104 154 89 callsubr
        </CharString>
        <CharString name="Udieresis">
          -12 69 660 114 hstem
          86 95 45 65 callsubr
          41 77 vstem
          71 669 -3 callsubr
          5 -21 rlineto
          4 -16 3 -15 -1 vvcurveto
          -360 vlineto
          -171 96 -85 169 -81 callsubr
          45 105 rmoveto
          -31 25 -26 103 callsubr
          31 -26 26 -31 -31 -25 -9 callsubr
          106 callsubr
          -31 26 -26 31 31 25 26 31 31 -25 -59 callsubr
          endchar
        </CharString>
        <CharString name="Ugrave">
          -13 69 816 93 callsubr
          71 668 -3 callsubr
          5 -22 rlineto
          4 -15 -79 callsubr
          146 53 rmoveto
          77 hlineto
          -95 151 rlineto
          -122 hlineto
          endchar
        </CharString>
        <CharString name="V">
          66 18 -21 731 -20 21 -20 hstemhm
          hintmask 10100000
          272 -3 rmoveto
          58 hlineto
          252 732 rlineto
          -80 hlineto
          -194 -567 rlineto
          hintmask 11000000
          -188 566 rlineto
          -99 hlineto
          endchar
        </CharString>
        <CharString name="W">
          357 16 -21 733 -20 hstem
          223 -5 rmoveto
          77 hlineto
          148 546 149 -546 rlineto
          77 hlineto
          199 733 rlineto
          -78 hlineto
          -151 -558 -150 558 rlineto
          -74 hlineto
          -150 -558 -151 558 rlineto
          -98 hlineto
          endchar
        </CharString>
        <CharString name="X">
          48 39 callsubr
          98 hmoveto
          187 300 179 -300 rlineto
          109 hlineto
          -234 391 212 337 rlineto
          -87 hlineto
          -166 -267 -160 267 rlineto
          -107 hlineto
          212 -356 -231 -372 rlineto
          endchar
        </CharString>
        <CharString name="Y">
          47 39 callsubr
          249 95 vstem
          249 360 rmoveto
          -360 95 360 vlineto
          209 368 rlineto
          -87 hlineto
          -157 -283 -169 283 rlineto
          -108 hlineto
          endchar
        </CharString>
        <CharString name="Yacute">
          47 21 -21 868 -20 hstem
          248 95 vstem
          -22 callsubr
          312 24 callsubr
        </CharString>
        <CharString name="Ydieresis">
          47 21 -21 717 90 callsubr
          163 114 -29 95 -17 114 hintmask 11010000
          -22 callsubr
          hintmask 11101000
          131 105 rmoveto
          -32 25 -25 32 32 25 25 32 -8 callsubr
          47 callsubr
          32 25 25 32 32 -25 25 -32 -37 callsubr
          endchar
        </CharString>
        <CharString name="Z">
          34 0 69 590 69 46 callsubr
          592 75 callsubr
          -592 rlineto
          -67 vlineto
          endchar
        </CharString>
        <CharString name="Zcaron">
          34 0 69 530 69 205 -20 46 callsubr
          532 75 callsubr
          -532 rlineto
          -67 vlineto
          222 697 -68 callsubr
        </CharString>
        <CharString name="a">
          -43 -54 callsubr
          17 callsubr
          hintmask 10111100
          -76 callsubr
          hintmask 01111100
          -98 callsubr
          hintmask 10111100
          -1 -4 -3 -107 callsubr
          85 3 -87 callsubr
          endchar
        </CharString>
        <CharString name="aacute">
          -92 callsubr
          85 3 -87 callsubr
          154 454 -48 callsubr
          endchar
        </CharString>
        <CharString name="acircumflex">
          -92 callsubr
          122 455 -57 callsubr
          30 -452 -87 callsubr
          endchar
        </CharString>
        <CharString name="acute">
          -256 592 -21 152 -20 hstem
          109 571 -48 callsubr
          endchar
        </CharString>
        <CharString name="adieresis">
          -43 -54 callsubr
          58 90 callsubr
          44 85 -16 65 callsubr
          -60 83 hintmask 1011110100000000
          -76 callsubr
          hintmask 0111110100000000
          -98 callsubr
          hintmask 1011110010000000
          -106 callsubr
          hintmask 1011101100000000
          69 504 rmoveto
          -94 callsubr
          hintmask 1011110010000000
          16 -501 -87 callsubr
          hintmask 1011110100000000
          147 501 rmoveto
          11 callsubr
        </CharString>
        <CharString name="ae">
          213 -12 69 -49 -21 254 62 141 65 hstemhm
          41 86 201 77 234 81 hintmask 10111110
          41 122 rmoveto
          -84 54 -50 84 84 49 29 68 47 vhcurveto
          hintmask 01111110
          -64 47 65 -34 80 hhcurveto
          56 65 19 35 45 hvcurveto
          -40 61 rlineto
          hintmask 10111110
          -29 -32 -55 -16 -43 hhcurveto
          -87 -55 88 79 hvcurveto
          17 254 vlineto
          51 10 32 44 121 -63 71 -124 -53 -58 -25 -40 -36 hvcurveto
          47 -29 -56 18 -53 hhcurveto
          -54 -98 -23 -43 -37 hvcurveto
          41 -58 rlineto
          39 35 60 20 49 hhcurveto
          68 16 -62 -55 hvcurveto
          -12 vlineto
          -4 0 -4 -1 -4 vhcurveto
          -121 -165 -29 -152 hvcurveto
          86 6 rmoveto
          91 114 20 71 vhcurveto
          14 -35 hlineto
          -72 -42 -73 -79 -43 -35 22 47 vhcurveto
          284 175 rmoveto
          69 11 42 74 79 hhcurveto
          72 24 -59 -62 -19 -7 -3 -17 hvcurveto
          endchar
        </CharString>
        <CharString name="agrave">
          -46 -54 callsubr
          219 -104 callsubr
          172 456 -52 callsubr
          53 -605 -87 callsubr
          endchar
        </CharString>
        <CharString name="ampersand">
          142 -13 82 -69 69 558 57 hstemhm
          51 85 9 81 135 78 hintmask 10111100
          51 185 rmoveto
          -109 92 -89 108 84 61 36 60 56 vhcurveto
          hintmask 01111100
          -43 41 49 -40 63 hhcurveto
          61 69 hlineto
          -106 12 12 73 -67 hvcurveto
          35 57 19 64 8 65 -62 14 rcurveline
          -6 -53 -14 -50 -23 -46 -151 182 rcurveline
          59 40 69 53 80 vvcurveto
          79 -70 45 -73 -76 -75 -50 -83 -64 21 -42 37 -51 vhcurveto
          -75 -46 -77 -68 -95 vvcurveto
          85 7 rmoveto
          66 49 53 52 34 vhcurveto
          85 -107 87 -107 rlineto
          -35 -39 -46 -30 -55 hhcurveto
          -74 -59 50 76 hvcurveto
          90 361 rmoveto
          40 26 34 43 40 26 -31 -39 -54 -45 -39 -41 -27 vhcurveto
          -25 35 -24 38 43 vvcurveto
          endchar
        </CharString>
        <CharString name="approxequal">
          120 91 65 4 65 57 65 4 65 hstem
          133 99 33 callsubr
          -23 rlineto
          -17 61 callsubr
          -15 9 -17 11 23 callsubr
          23 rlineto
          17 58 callsubr
          50 159 33 callsubr
          -24 rlineto
          -16 61 callsubr
          -5 3 -5 3 -5 4 -17 10 rcurveline
          23 callsubr
          24 rlineto
          16 58 callsubr
          endchar
        </CharString>
        <CharString name="aring">
          -33 -54 callsubr
          42 51 96 52 hstemhm
          44 85 25 51 96 51 -23 83 hintmask 1011111110000000
          -76 callsubr
          hintmask 0111111110000000
          -98 callsubr
          hintmask 1011111101000000
          -106 callsubr
          85 3 -87 callsubr
          25 527 rmoveto
          -53 46 -46 53 vhcurveto
          hintmask 1011111110000000
          48 callsubr
          hvcurveto
          51 hmoveto
          -30 callsubr
        </CharString>
        <CharString name="asciicircum">
          81 -5 callsubr
          hstem
          133 hmoveto
          176 405 177 -405 rlineto
          76 hlineto
          -217 497 rlineto
          -74 hlineto
          -215 -497 rlineto
          endchar
        </CharString>
        <CharString name="asciitilde">
          126 202 75 -55 -21 70 75 hstemhm
          hintmask 01100000
          137 201 rmoveto
          32 16 30 38 38 hhcurveto
          hintmask 10000000
          77 58 -69 80 hhcurveto
          56 58 51 45 29 hvcurveto
          -52 47 rlineto
          -33 -17 -35 -35 -39 hhcurveto
          -14 -15 4 7 -15 hvcurveto
          -51 24 rlineto
          hintmask 01100000
          16 -36 -40 18 -44 hhcurveto
          -61 -52 -49 -52 -24 hvcurveto
          endchar
        </CharString>
        <CharString name="asterisk">
          -27 400 -21 352 -20 hstem
          208 546 rmoveto
          13 36 -128 61 -21 -76 rlineto
          106 -186 rmoveto
          68 122 -34 27 -95 -104 rlineto
          115 165 rmoveto
          41 hlineto
          17 140 rlineto
          -78 hlineto
          117 -352 rmoveto
          63 48 -98 99 -33 -23 rlineto
          39 38 rmoveto
          137 28 -29 78 -121 -64 rlineto
          endchar
        </CharString>
        <CharString name="at">
          294 -128 42 136 45 296 49 134 42 hstem
          51 50 147 74 407 50 vstem
          51 192 rmoveto
          -181 131 -139 184 31 31 4 8 30 vhcurveto
          -12 41 rlineto
          -7 -27 -27 -4 -26 hhcurveto
          -155 -110 120 158 185 132 197 220 151 125 -96 -167 -106 -52 -110 -85 -35 -11 21 31 5 2 21 4 28 hvcurveto
          6 46 8 51 20 135 rlineto
          -37 hlineto
          -7 -15 -9 -14 rlineto
          23 -20 -29 13 -35 hhcurveto
          -128 -73 -144 -99 -78 33 -69 88 41 45 23 41 29 hvcurveto
          1 0 -1 1 hhcurveto
          1 hlineto
          -13 5 23 -48 75 hhcurveto
          117 72 133 126 194 -149 111 -177 -248 -154 -219 -205 hvcurveto
          271 3 rmoveto
          63 36 133 88 27 18 -12 -20 19 vhcurveto
          -86 -11 -22 -174 -94 hhcurveto
          -51 -10 52 44 hvcurveto
          endchar
        </CharString>
        <CharString name="atilde">
          -43 -54 callsubr
          64 73 -34 34 -34 73 17 callsubr
          hintmask 1011100110000000
          -76 callsubr
          hintmask 0111100110000000
          -98 callsubr
          hintmask 1011010110000000
          -106 callsubr
          100 465 50 callsubr
          hintmask 1011100110000000
          -62 callsubr
          hintmask 1011001110000000
          -41 -46 -6 callsubr
          34 -462 -87 callsubr
          endchar
        </CharString>
        <CharString name="b">
          21 -13 62 -29 -21 437 71 255 -20 hstemhm
          82 83 258 89 hintmask 01111100
          68 762 rmoveto
          -3 5 -14 3 -13 vhcurveto
          4 -18 rlineto
          1 -5 1 -4 -1 vvcurveto
          -636 vlineto
          -11 0 -11 -1 -12 vhcurveto
          -2 -35 rlineto
          50 hlineto
          18 52 rlineto
          hintmask 10111100
          -43 36 54 -21 56 hhcurveto
          148 71 129 135 124 -68 132 -139 -57 -40 -16 -39 -43 hvcurveto
          310 vlineto
          -381 vmoveto
          32 31 44 23 44 hhcurveto
          101 38 -100 -88 -80 -33 -119 -100 -92 -33 66 84 hvcurveto
          endchar
        </CharString>
        <CharString name="backslash">
          -211 39 callsubr
          262 hmoveto
          67 hlineto
          -263 728 rlineto
          -69 hlineto
          endchar
        </CharString>
        <CharString name="bar">
          -302 -86 -21 855 -20 hstem
          82 71 vstem
          153 -107 rmoveto
          855 -71 -855 vlineto
          endchar
        </CharString>
        <CharString name="braceleft">
          49 callsubr
          122 81 -81 170 cntrmask 11100000
          hintmask 11110000
          58 278 rmoveto
          49 15 -43 -43 hvcurveto
          -164 vlineto
          -101 40 -62 105 vhcurveto
          hintmask 11101000
          25 47 hlineto
          hintmask 11110000
          -64 -25 13 67 hvcurveto
          178 vlineto
          54 -10 55 -56 21 vhcurveto
          56 19 10 59 53 vvcurveto
          170 vlineto
          hintmask 11101000
          71 14 17 75 vhcurveto
          47 -22 vlineto
          -108 -40 -62 -101 hvcurveto
          -153 vlineto
          -44 -7 -53 -57 vhcurveto
          -45 vlineto
          endchar
        </CharString>
        <CharString name="braceright">
          49 callsubr
          58 169 -81 81 cntrmask 11100000
          hintmask 11110000
          58 -135 rmoveto
          22 hlineto
          107 40 63 100 hvcurveto
          153 vlineto
          44 6 53 59 vhcurveto
          45 vlineto
          -51 -14 43 43 hvcurveto
          164 vlineto
          116 -49 47 -113 vhcurveto
          -7 -47 hlineto
          hintmask 11101000
          65 23 -13 -67 hvcurveto
          -178 vlineto
          -53 10 -59 56 -19 vhcurveto
          -56 -21 -10 -55 -54 vvcurveto
          -170 vlineto
          hintmask 11110000
          -69 -15 -19 -73 vhcurveto
          endchar
        </CharString>
        <CharString name="bracketleft">
          -186 -128 49 760 49 hstemhm
          72 81 -81 208 hintmask 11010000
          280 -128 rmoveto
          49 vlineto
          hintmask 11100000
          -127 760 hlineto
          hintmask 11010000
          127 49 -208 -858 hlineto
          endchar
        </CharString>
        <CharString name="bracketright">
          -187 -127 49 759 49 hstemhm
          72 207 -81 81 hintmask 11010000
          198 681 rmoveto
          -759 vlineto
          hintmask 11100000
          -126 -49 207 857 -208 -49 hlineto
          endchar
        </CharString>
        <CharString name="breve">
          -261 562 69 -69 139 hstemhm
          hintmask 01000000
          -2 701 rmoveto
          -83 9 43 -56 88 hhcurveto
          91 39 55 84 9 hvcurveto
          -49 hlineto
          hintmask 10000000
          -47 -11 -30 -23 -49 hhcurveto
          hintmask 01000000
          -48 -31 22 48 -11 hvcurveto
          -50 hlineto
          endchar
        </CharString>
        <CharString name="brokenbar">
          -299 -94 -21 857 -20 hstem
          84 68 vstem
          152 -115 rmoveto
          348 -68 -348 vlineto
          68 508 rmoveto
          349 -68 -349 vlineto
          endchar
        </CharString>
        <CharString name="bullet">
          -96 217 -21 322 -20 hstem
          60 357 rmoveto
          -89 72 -72 89 89 71 72 89 89 -71 72 -89 -89 -72 -72 -89 vhcurveto
          endchar
        </CharString>
        <CharString name="c">
          -87 -13 69 388 65 hstem
          44 89 99 callsubr
          -128 86 -133 139 69 37 13 37 58 vhcurveto
          -46 callsubr
        </CharString>
        <CharString name="caron">
          -262 568 -21 176 -20 hstem
          96 547 -68 callsubr
        </CharString>
        <CharString name="ccedilla">
          -87 98 callsubr
          33 69 388 65 hstem
          44 89 150 83 99 callsubr
          -113 67 -119 112 -24 vhcurveto
          -39 -69 91 callsubr
          5 -5 11 vhcurveto
          10 callsubr
          -17 27 30 -11 31 hhcurveto
          59 68 53 callsubr
          -12 hlineto
          18 33 rlineto
          71 35 13 37 59 hvcurveto
          -46 callsubr
        </CharString>
        <CharString name="cedilla">
          -257 98 callsubr
          55 -20 hstem
          164 83 vstem
          32 -192 rmoveto
          -17 27 31 -11 27 hhcurveto
          59 71 53 callsubr
          -11 hlineto
          29 55 rlineto
          -47 hlineto
          -48 -86 rlineto
          -3 0 -3 1 -3 vhcurveto
          -6 1 4 -3 7 hhcurveto
          10 callsubr
          endchar
        </CharString>
        <CharString name="cent">
          -87 -118 173 -69 69 388 169 hstemhm
          41 89 hintmask 10110000
          41 247 rmoveto
          -113 51 -108 115 -32 vhcurveto
          -31 -112 rlineto
          72 hlineto
          hintmask 01110000
          10 104 rlineto
          15 hlineto
          56 48 13 36 53 hvcurveto
          -38 64 rlineto
          -29 -41 -28 -15 -52 7 callsubr
          53 20 -12 -32 40 hvcurveto
          44 58 -31 24 -43 17 -39 7 rlinecurve
          30 107 rlineto
          -74 hlineto
          -10 -105 rlineto
          -142 -13 -73 -111 -136 vvcurveto
          endchar
        </CharString>
        <CharString name="circumflex">
          -262 586 -21 22 -21 154 -20 hstemhm
          hintmask 01100000
          59 566 rmoveto
          76 81 rlineto
          hintmask 10100000
          -39 callsubr
          hintmask 01100000
          41 callsubr
          endchar
        </CharString>
        <CharString name="colon">
          -206 -13 132 183 132 hstem
          96 132 vstem
          96 53 rmoveto
          -72 callsubr
          -36 -30 -30 -36 vhcurveto
          315 vmoveto
          -72 callsubr
          -36 -30 -30 -36 vhcurveto
          endchar
        </CharString>
        <CharString name="comma">
          -302 -106 8 callsubr
          46 27 callsubr
          hintmask 11100000
          46 -61 callsubr
        </CharString>
        <CharString name="copyright">
          98 -22 39 71 46 236 44 69 39 hstem
          44 39 88 61 317 39 vstem
          44 250 rmoveto
          -149 123 -123 149 149 123 123 149 149 -123 123 -149 -149 -123 -123 -149 vhcurveto
          39 hmoveto
          128 105 105 128 128 105 -105 -128 -128 -105 -105 -128 -128 -105 105 128 vhcurveto
          88 1 rmoveto
          -89 53 -74 94 45 24 8 23 39 vhcurveto
          -26 43 rlineto
          -19 -27 -19 -9 -33 hhcurveto
          -62 -27 69 53 50 26 64 60 32 17 -7 -20 24 hvcurveto
          30 38 rlineto
          19 -28 -34 14 -33 hhcurveto
          -96 -59 -70 -93 hvcurveto
          endchar
        </CharString>
        <CharString name="currency">
          -1 125 61 -51 -21 363 61 13 -20 hstemhm
          72 73 243 72 hintmask 01101100
          47 163 rmoveto
          9 -8 8 -8 8 -9 24 -24 rcurveline
          27 26 26 27 rlineto
          hintmask 10101100
          -27 33 40 -15 44 hhcurveto
          44 39 14 28 33 hvcurveto
          26 -27 rlineto
          hintmask 01011100
          28 -26 24 24 25 24 -58 56 rlineto
          20 33 13 38 43 vvcurveto
          41 -13 39 -20 33 vhcurveto
          58 57 -25 24 -24 25 -55 -54 rlineto
          hintmask 10101100
          27 -33 -39 14 -43 hhcurveto
          -44 -40 -15 -27 -32 hvcurveto
          hintmask 10011100
          -54 55 -49 -49 57 -57 rlineto
          -20 -33 -12 -39 -41 vvcurveto
          -43 12 -38 19 -32 vhcurveto
          42 113 rmoveto
          hintmask 10101100
          80 52 65 69 70 52 -65 -80 -88 -58 -58 -64 -63 -58 59 87 vhcurveto
          endchar
        </CharString>
        <CharString name="d">
          21 -13 73 380 68 254 -20 hstem
          45 88 259 82 vstem
          45 244 rmoveto
          -125 66 -132 140 57 55 27 45 35 vhcurveto
          3 -25 7 -22 9 -21 88 11 rcurveline
          -22 38 -9 61 42 vvcurveto
          619 -96 vlineto
          14 -59 rlineto
          -239 vlineto
          31 -35 -45 13 -45 hhcurveto
          -150 -72 -128 -136 hvcurveto
          88 6 rmoveto
          88 31 102 105 87 36 -66 -80 vhcurveto
          -168 vlineto
          -33 -29 -40 -33 -47 hhcurveto
          -106 -37 99 91 hvcurveto
          endchar
        </CharString>
        <CharString name="dagger">
          -14 -117 -21 878 -20 hstemhm
          218 81 -63 63 hintmask 11010000
          117 440 rmoveto
          92 callsubr
          hintmask 11100000
          -5 -32 -5 -31 -12 vvcurveto
          -29 1 -22 3 -24 vhcurveto
          2 -34 3 -40 18 -298 rlineto
          46 hlineto
          16 298 1 29 3 22 1 23 rlinecurve
          2 36 rlineto
          1 11 0 13 15 vvcurveto
          12 -6 30 -5 32 vhcurveto
          -9 46 -6 33 -10 callsubr
          rlineto
          endchar
        </CharString>
        <CharString name="daggerdbl">
          -14 -118 -21 879 -20 hstem
          117 68 rmoveto
          126 25 -26 -154 53 -78 46 78 -23 154 122 -25 67 44 -67 43 -123 -20 6 39 8 50 rlineto
          5 35 5 34 16 vvcurveto
          3 -1 8 -3 14 vhcurveto
          -8 48 -7 36 -7 35 -1 9 rlinecurve
          -10 callsubr
          66 -45 92 callsubr
          -5 -32 -5 -31 -12 vvcurveto
          -15 5 -34 7 -36 vhcurveto
          8 -51 6 -38 -127 20 -66 -38 rlineto
          endchar
        </CharString>
        <CharString name="degree">
          -149 443 60 180 60 hstem
          44 62 175 63 vstem
          44 593 rmoveto
          -83 67 -67 83 83 67 67 83 83 -67 67 -83 -83 -67 -67 -83 vhcurveto
          62 hmoveto
          49 37 41 51 51 36 -41 -49 -49 -36 -41 -51 -51 -37 41 49 vhcurveto
          endchar
        </CharString>
        <CharString name="dieresis">
          -261 567 114 hstem
          0 65 callsubr
          vstem
          624 vmoveto
          -94 callsubr
          163 6 callsubr
        </CharString>
        <CharString name="divide">
          93 20 120 71 70 72 121 hstem
          255 121 vstem
          567 211 38 callsubr
          187 -131 rmoveto
          72 callsubr
          27 -33 -33 -28 -27 -33 vhcurveto
          333 vmoveto
          72 callsubr
          28 -33 -33 -28 -28 -33 vhcurveto
          endchar
        </CharString>
        <CharString name="dollar">
          -84 -116 166 396 63 -63 167 hstemhm
          76 86 147 87 hintmask 10111000
          67 29 rmoveto
          40 -23 32 -14 47 -5 -31 -103 rcurveline
          73 hlineto
          9 102 rlineto
          88 8 71 48 96 155 -234 -26 111 vvcurveto
          52 55 16 43 31 40 -17 -19 25 vhcurveto
          29 64 -28 17 -35 10 -32 5 rlinecurve
          32 107 rlineto
          -72 hlineto
          hintmask 11011000
          -10 -104 rlineto
          -84 -5 -80 -46 -94 -149 233 18 -112 vvcurveto
          -56 -54 -15 -46 -35 -42 20 20 -28 vhcurveto
          -37 -61 rlineto
          endchar
        </CharString>
        <CharString name="dotaccent">
          -252 559 132 hstem
          77 132 vstem
          77 625 -56 callsubr
          endchar
        </CharString>
        <CharString name="dotlessi">
          -285 21 -21 497 63 callsubr
          72 497 rmoveto
          -43 callsubr
          -95 vlineto
          endchar
        </CharString>
        <CharString name="e">
          -43 -26 callsubr
          -101 callsubr
          94 75 14 callsubr
        </CharString>
        <CharString name="eacute">
          -97 callsubr
          94 75 -66 callsubr
          -50 258 -48 callsubr
          endchar
        </CharString>
        <CharString name="ecircumflex">
          -97 callsubr
          138 331 -57 callsubr
          23 -256 14 callsubr
        </CharString>
        <CharString name="edieresis">
          -43 -26 callsubr
          58 90 callsubr
          44 88 -4 65 callsubr
          -40 89 hintmask 11111001
          -105 callsubr
          hintmask 11110101
          84 381 rmoveto
          -94 callsubr
          10 -306 -66 callsubr
          hintmask 11111010
          -56 306 rmoveto
          11 callsubr
        </CharString>
        <CharString name="egrave">
          -97 callsubr
          187 333 -52 callsubr
          47 -410 14 callsubr
        </CharString>
        <CharString name="eight">
          -45 -11 60 621 59 hstemhm
          47 82 -58 93 185 69 -69 93 hintmask 11100100
          47 158 rmoveto
          -105 92 -64 99 112 92 65 118 66 -44 56 -47 45 vhcurveto
          -46 44 9 9 39 38 rlineto
          hintmask 11011000
          38 36 27 43 61 vvcurveto
          99 -77 60 -95 -92 -83 -74 -95 -91 60 -36 54 -59 vhcurveto
          -16 -13 rlineto
          hintmask 11101000
          -68 -55 -54 -47 -101 vvcurveto
          82 3 rmoveto
          57 23 32 32 32 vhcurveto
          35 31 15 13 36 -33 rlineto
          39 -35 40 -44 -48 vvcurveto
          -67 -45 -50 -68 -59 -48 54 58 vhcurveto
          hintmask 11011000
          35 404 rmoveto
          52 26 53 58 56 34 -47 -53 -57 -44 -47 -40 -34 vhcurveto
          -28 28 rlineto
          -30 29 -32 37 39 vvcurveto
          endchar
        </CharString>
        <CharString name="ellipsis">
          177 -13 132 hstem
          82 132 79 132 79 132 cntrmask 01110000
          82 53 -56 callsubr
          211 hmoveto
          -84 callsubr
          211 hmoveto
          -84 callsubr
          endchar
        </CharString>
        <CharString name="emdash">
          315 230 61 hstem
          843 230 rmoveto
          61 -835 -61 vlineto
          endchar
        </CharString>
        <CharString name="endash">
          -35 230 62 hstem
          493 230 rmoveto
          62 -485 -62 vlineto
          endchar
        </CharString>
        <CharString name="equal">
          93 113 70 123 70 hstem
          567 113 38 callsubr
          499 193 38 callsubr
          endchar
        </CharString>
        <CharString name="eth">
          -1 -10 60 395 60 267 -20 hstem
          45 88 270 88 vstem
          45 247 rmoveto
          -137 79 -120 144 144 79 120 137 160 -100 156 -92 110 vhcurveto
          101 56 -28 42 -107 -59 -11 13 -11 11 -11 10 rlinecurve
          -27 26 -55 -33 28 -27 29 -32 -104 -58 31 -40 105 58 35 -43 33 -50 28 -55 rlinecurve
          8 -20 -22 5 -25 hhcurveto
          -141 -82 -121 -137 hvcurveto
          88 hmoveto
          79 31 119 104 104 31 -117 -81 -81 -31 -116 -104 -104 -31 117 80 vhcurveto
          endchar
        </CharString>
        <CharString name="exclam">
          -208 -13 132 608 -20 hstem
          99 132 -111 88 vstem
          99 53 -56 callsubr
          36 164 rmoveto
          59 hlineto
          29 495 rlineto
          11 -7 4 -11 vhcurveto
          -82 hlineto
          -9 -8 -3 -11 hvcurveto
          endchar
        </CharString>
        <CharString name="exclamdown">
          -208 -105 -21 608 132 hstem
          98 133 -110 88 vstem
          98 548 rmoveto
          -37 30 -29 37 36 29 30 36 1 vhcurveto
          101 callsubr
          -31 -29 -37 vhcurveto
          9 -658 rmoveto
          -12 9 -4 9 vhcurveto
          81 hlineto
          9 9 3 11 hvcurveto
          -30 495 rlineto
          -58 hlineto
          endchar
        </CharString>
        <CharString name="f">
          -249 21 -21 435 62 211 62 hstem
          95 82 vstem
          95 435 68 callsubr
          62 rlineto
          -143 hlineto
          88 11 123 117 24 29 -9 -16 19 vhcurveto
          23 62 rlineto
          19 -32 -28 6 -37 hhcurveto
          -111 -65 -76 -104 -19 hvcurveto
          -4 -24 -2 -15 30 callsubr
        </CharString>
        <CharString name="five">
          -160 -188 -21 621 85 hstem
          215 90 vstem
          10 -209 rmoveto
          148 24 147 102 163 vvcurveto
          110 -79 90 -95 48 vhcurveto
          35 84 rlineto
          177 hlineto
          24 85 rlineto
          -236 hlineto
          -91 -214 rlineto
          77 -37 98 -78 -94 vvcurveto
          -133 -109 -63 -112 -35 vhcurveto
          endchar
        </CharString>
        <CharString name="florin">
          -240 -219 62 591 63 177 64 hstem
          -98 -217 rmoveto
          -1 4 4 -1 5 hhcurveto
          13 hlineto
          108 51 92 96 19 hvcurveto
          15 74 14 77 13 81 36 233 rcurveline
          133 hlineto
          18 63 rlineto
          -142 hlineto
          44 8 27 133 64 hhcurveto
          28 35 -10 -23 19 hvcurveto
          20 70 rlineto
          16 -23 -30 11 -28 hhcurveto
          -207 41 -235 -12 -66 hvcurveto
          -19 -4 -22 1 -20 -1 rrcurveto
          -53 78 vlineto
          -86 -497 rlineto
          -44 -8 -28 -50 -51 hhcurveto
          -6 hlineto
          -17 -60 rlineto
          endchar
        </CharString>
        <CharString name="four">
          -40 -164 -21 185 69 429 -20 hstem
          304 83 vstem
          304 hmoveto
          -185 83 185 83 vlineto
          18 69 rlineto
          -101 429 -98 hlineto
          -277 -458 rlineto
          -40 vlineto
          292 399 rmoveto
          -330 -200 vlineto
          endchar
        </CharString>
        <CharString name="fraction">
          -405 14 -21 737 -20 hstem
          -89 -7 rmoveto
          375 737 rlineto
          -66 hlineto
          -373 -737 rlineto
          endchar
        </CharString>
        <CharString name="g">
          -60 -230 68 162 79 85 60 225 46 -46 60 1 -20 hstemhm
          21 86 -63 87 -87 99 167 87 -17 77 hintmask 1111001000100000
          21 -104 rmoveto
          -95 104 -31 75 125 132 56 148 92 -87 13 -69 vhcurveto
          -31 -34 -3 -32 hhcurveto
          hintmask 1110010011000000
          -28 -33 0 37 20 20 35 20 hvcurveto
          12 11 -4 15 hhcurveto
          96 80 76 97 35 -10 37 -23 29 hvcurveto
          107 hlineto
          18 72 rlineto
          hintmask 1111001001000000
          -8 -59 -49 -7 -51 hhcurveto
          hintmask 1110100101000000
          -37 -34 14 -39 hhcurveto
          -96 -80 -76 -97 -57 30 -53 47 -32 hvcurveto
          -8 -15 -9 -15 -9 -13 -31 -43 rcurveline
          -4 -7 -8 -6 -8 vvcurveto
          -31 18 -27 28 -15 vhcurveto
          hintmask 1111001000100000
          -39 -27 -38 -40 -51 vvcurveto
          86 17 rmoveto
          31 24 34 27 19 vhcurveto
          2 40 40 1 40 hhcurveto
          45 57 -3 -52 -80 -96 -27 -69 -45 -63 27 48 hvcurveto
          hintmask 1111000101000000
          24 424 rmoveto
          64 41 48 49 48 41 -49 -64 -64 -41 -48 -49 -48 -41 49 64 vhcurveto
          endchar
        </CharString>
        <CharString name="germandbls">
          15 -12 65 -32 -21 434 55 182 70 hstemhm
          102 83 64 225 -88 88 -27 88 hintmask 01111010
          102 434 rmoveto
          -434 83 474 vlineto
          80 20 117 101 56 24 -34 -55 vhcurveto
          hintmask 10111100
          -102 -137 -13 -67 vvcurveto
          hintmask 10111001
          -96 198 1 -136 vvcurveto
          -72 -58 -44 -56 -23 -23 6 7 -23 vhcurveto
          -28 -58 rlineto
          -12 31 41 -8 33 hhcurveto
          118 76 77 119 80 -48 46 -59 32 hvcurveto
          -61 31 rlineto
          -27 13 -18 9 9 vvcurveto
          7 14 6 15 9 vhcurveto
          hintmask 10111100
          65 41 58 17 99 vvcurveto
          104 -64 54 -104 -115 -52 -70 -103 -24 vhcurveto
          -59 -13 -11 -20 -63 hhcurveto
          -55 vlineto
          endchar
        </CharString>
        <CharString name="grave">
          -256 597 -21 152 -20 hstem
          171 576 -52 callsubr
          endchar
        </CharString>
        <CharString name="greater">
          86 callsubr
          214 rmoveto
          73 vlineto
          -498 216 rlineto
          -77 vlineto
          405 -177 -405 -177 rlineto
          -76 vlineto
          endchar
        </CharString>
        <CharString name="greaterequal">
          18 callsubr
          258 rmoveto
          75 vlineto
          -498 169 rlineto
          -77 vlineto
          402 -131 -402 -131 rlineto
          -76 vlineto
          endchar
        </CharString>
        <CharString name="guillemotleft">
          -71 194 62 callsubr
          203 173 rmoveto
          60 9 -119 54 callsubr
          11 -144 -163 rlineto
          297 -163 rmoveto
          59 9 -118 54 callsubr
          11 -145 -163 rlineto
          endchar
        </CharString>
        <CharString name="guillemotright">
          -71 192 62 callsubr
          114 171 rmoveto
          149 163 -145 94 callsubr
          -118 -155 rlineto
          208 -8 rmoveto
          148 163 -144 94 callsubr
          -119 -155 rlineto
          endchar
        </CharString>
        <CharString name="guilsinglleft">
          -239 192 62 callsubr
          194 171 rmoveto
          59 8 -118 54 callsubr
          12 -145 -164 rlineto
          endchar
        </CharString>
        <CharString name="guilsinglright">
          -208 190 62 callsubr
          120 169 rmoveto
          148 162 -144 164 -61 -12 116 -152 -119 -154 rlineto
          endchar
        </CharString>
        <CharString name="h">
          10 21 -21 436 74 252 -20 hstem
          82 82 220 82 vstem
          69 762 rmoveto
          -45 callsubr
          -703 82 370 vlineto
          31 37 50 35 50 hhcurveto
          79 4 -69 -61 hvcurveto
          -306 82 333 vlineto
          104 -41 73 -110 -60 -48 -32 -40 -43 vhcurveto
          324 -95 vlineto
          endchar
        </CharString>
        <CharString name="hungarumlaut">
          -132 557 170 hstem
          96 557 rmoveto
          137 170 rlineto
          -118 hlineto
          -81 -170 rlineto
          203 hmoveto
          137 170 rlineto
          -117 hlineto
          -81 -170 rlineto
          endchar
        </CharString>
        <CharString name="hyphen">
          -224 224 75 hstem
          272 224 rmoveto
          75 -231 -75 vlineto
          endchar
        </CharString>
        <CharString name="i">
          -286 -5 callsubr
          126 122 hstemhm
          64 121 -101 83 hintmask 11110000
          64 664 rmoveto
          -33 27 -28 33 82 callsubr
          -27 -28 -33 vhcurveto
          8 -167 rmoveto
          hintmask 11101000
          -28 callsubr
        </CharString>
        <CharString name="iacute">
          31 callsubr
          146 576 -48 callsubr
          4 -79 rmoveto
          -28 callsubr
        </CharString>
        <CharString name="icircumflex">
          22 callsubr
          252 63 callsubr
          46 575 -57 callsubr
          93 -78 rmoveto
          -28 callsubr
        </CharString>
        <CharString name="idieresis">
          22 callsubr
          90 90 callsubr
          -12 113 -17 83 -16 113 hintmask 11110100
          -12 624 rmoveto
          -94 callsubr
          84 -127 rmoveto
          hintmask 11101000
          -43 callsubr
          vlineto
          hintmask 11110100
          -16 127 rmoveto
          11 callsubr
        </CharString>
        <CharString name="igrave">
          31 callsubr
          92 576 -52 callsubr
          120 -231 rmoveto
          -28 callsubr
        </CharString>
        <CharString name="infinity">
          275 82 82 169 81 hstem
          78 66 524 66 vstem
          78 248 rmoveto
          -95 59 -71 94 77 53 57 58 45 vhcurveto
          -58 45 53 -57 77 hhcurveto
          94 59 71 95 96 -58 70 -96 -76 -53 -58 -56 -45 hvcurveto
          56 -45 -54 58 -75 hhcurveto
          -96 -58 -70 -96 hvcurveto
          66 hmoveto
          52 36 33 52 42 35 -25 -30 28 vhcurveto
          27 -30 rlineto
          -40 -35 -42 -44 -57 hhcurveto
          -51 -35 32 52 hvcurveto
          331 30 rmoveto
          30 28 35 25 42 hhcurveto
          52 36 -33 -52 -52 -35 -32 -51 -57 -42 44 40 -35 hvcurveto
          endchar
        </CharString>
        <CharString name="integral">
          -281 -226 57 845 58 hstem
          92 83 vstem
          -7 -226 rmoveto
          124 58 69 121 hvcurveto
          599 vlineto
          53 25 60 68 vhcurveto
          58 vlineto
          -123 -53 -73 -117 hvcurveto
          -600 vlineto
          -54 -31 -59 -68 vhcurveto
          endchar
        </CharString>
        <CharString name="j">
          -286 -207 -21 725 106 0 122 hstemhm
          65 122 -103 83 hintmask 11001000
          25 -228 rmoveto
          123 16 19 136 101 vvcurveto
          472 -96 vlineto
          -45 callsubr
          -425 vlineto
          -72 0 -91 -73 -38 vhcurveto
          hintmask 10110000
          54 852 rmoveto
          -35 26 -26 35 82 callsubr
          -28 -28 -33 vhcurveto
          endchar
        </CharString>
        <CharString name="k">
          -73 -5 callsubr
          285 -20 hstem
          81 83 vstem
          68 762 rmoveto
          -45 callsubr
          -703 83 270 vlineto
          203 -270 rlineto
          99 hlineto
          -218 288 191 209 rlineto
          -89 hlineto
          -186 -205 rlineto
          470 -96 vlineto
          endchar
        </CharString>
        <CharString name="l">
          -286 21 -21 762 63 callsubr
          71 762 rmoveto
          -6 13 -49 -3 vvcurveto
          -704 83 762 -96 vlineto
          endchar
        </CharString>
        <CharString name="less">
          86 callsubr
          -4 rmoveto
          76 vlineto
          -405 177 405 177 rlineto
          77 vlineto
          -498 -216 rlineto
          -73 vlineto
          endchar
        </CharString>
        <CharString name="lessequal">
          18 callsubr
          87 rmoveto
          76 vlineto
          -402 131 402 131 rlineto
          77 vlineto
          -498 -169 rlineto
          -75 vlineto
          endchar
        </CharString>
        <CharString name="logicalnot">
          101 89 250 -60 60 hstemhm
          504 61 hintmask 01100000
          504 279 rmoveto
          hintmask 10100000
          -190 61 250 -493 vlineto
          hintmask 01100000
          -60 vlineto
          endchar
        </CharString>
        <CharString name="lozenge">
          -33 10 -21 743 -20 hstem
          232 -11 rmoveto
          40 hlineto
          195 371 -97 186 -98 186 rlineto
          -40 hlineto
          -98 -186 -97 -186 rlineto
          139 146 rmoveto
          75 145 151 -291 -75 -147 -75 -148 -76 148 -74 147 rlineto
          endchar
        </CharString>
        <CharString name="lslash">
          -290 21 -21 761 -20 hstemhm
          11 154 -83 83 -83 154 hintmask 11010000
          82 298 rmoveto
          -298 83 337 vlineto
          hintmask 11001000
          71 33 rlineto
          69 vlineto
          hintmask 11100000
          -71 -33 rlineto
          355 -96 vlineto
          hintmask 11010000
          -6 13 -49 -3 vvcurveto
          -336 vlineto
          hintmask 11100000
          -71 -33 rlineto
          -69 vlineto
          endchar
        </CharString>
        <CharString name="m">
          292 104 callsubr
          hstem
          80 83 209 83 209 83 cntrmask 00111000
          48 494 rmoveto
          23 -36 9 -56 -41 vvcurveto
          -361 83 369 vlineto
          27 22 rlineto
          23 29 37 21 33 hhcurveto
          77 6 -69 -61 hvcurveto
          -305 83 332 vlineto
          12 -1 12 -1 11 vhcurveto
          32 32 49 36 47 hhcurveto
          77 6 -70 -60 hvcurveto
          -305 83 35 callsubr
          -58 -57 -43 -40 -40 vhcurveto
          59 -28 -45 24 -64 hhcurveto
          -53 -56 -38 -36 -36 hvcurveto
          -3 23 -7 23 -9 23 -91 -10 rcurveline
          endchar
        </CharString>
        <CharString name="middot">
          -244 195 132 hstem
          81 132 vstem
          81 260 rmoveto
          -36 30 -29 36 36 30 29 36 36 -30 31 -36 -37 -29 -30 -37 vhcurveto
          endchar
        </CharString>
        <CharString name="minus">
          21 callsubr
        </CharString>
        <CharString name="mu">
          18 -187 248 -74 74 -49 -21 506 -20 hstemhm
          81 85 217 82 hintmask 10011100
          68 497 rmoveto
          -45 callsubr
          -625 85 188 vlineto
          hintmask 01011100
          -9 22 22 -5 22 hhcurveto
          52 64 35 37 37 hvcurveto
          hintmask 00111100
          -90 callsubr
          hintmask 10011100
          -73 callsubr
          -95 vlineto
          -45 callsubr
          -311 vlineto
          -33 -33 -56 -33 -48 hhcurveto
          -75 -8 71 59 hvcurveto
          306 -95 vlineto
          endchar
        </CharString>
        <CharString name="multiply">
          -3 71 -21 392 -20 hstem
          115 50 rmoveto
          152 152 152 -152 44 44 -153 152 153 152 -44 44 -152 -152 -152 152 -44 -44 153 -152 -153 67 callsubr
        </CharString>
        <CharString name="n">
          10 104 callsubr
          hstem
          80 82 220 82 vstem
          -58 callsubr
          -91 -12 rcurveline
          endchar
        </CharString>
        <CharString name="nine">
          -1 -196 -21 308 68 288 62 hstem
          51 91 257 91 vstem
          51 294 rmoveto
          -105 80 -98 109 51 52 19 32 39 vhcurveto
          -45 -156 -134 -88 -142 -59 21 -56 rcurveline
          45 12 45 23 41 23 rrcurveto
          157 91 120 139 190 vvcurveto
          137 -78 111 -145 -120 -96 -95 -120 vhcurveto
          91 hmoveto
          73 42 80 82 101 32 -98 -85 vhcurveto
          -19 vlineto
          -6 -1 -6 -1 -7 vhcurveto
          -36 -35 -47 -31 -52 hhcurveto
          -76 -45 63 72 hvcurveto
          endchar
        </CharString>
        <CharString name="notequal">
          101 -10 191 -62 62 131 62 -62 194 hstemhm
          hintmask 01100000
          239 119 rmoveto
          hintmask 10100000
          -46 -129 rlineto
          65 hlineto
          hintmask 01100000
          46 129 rlineto
          261 62 -239 hlineto
          48 131 rlineto
          191 62 -169 hlineto
          hintmask 10010000
          48 132 rlineto
          -64 hlineto
          hintmask 10100000
          -48 -132 rlineto
          -260 -62 238 hlineto
          -48 -131 rlineto
          -190 hlineto
          hintmask 01100000
          -62 vlineto
          endchar
        </CharString>
        <CharString name="ntilde">
          10 104 callsubr
          64 37 callsubr
          80 82 220 82 hintmask 11010110
          -58 callsubr
          rrcurveto
          29 80 rmoveto
          15 4 15 12 15 hhcurveto
          hintmask 11100110
          -55 callsubr
          -8 -9 -11 -19 hhcurveto
          hintmask 11001110
          60 callsubr
          endchar
        </CharString>
        <CharString name="numbersign">
          103 16 -21 241 65 121 66 233 -20 hstem
          178 236 rmoveto
          -33 -241 rlineto
          70 hlineto
          34 241 rlineto
          111 hlineto
          -33 -241 rlineto
          71 hlineto
          33 241 rlineto
          133 65 -124 hlineto
          17 121 rlineto
          131 66 44 callsubr
          32 233 rlineto
          -71 hlineto
          -31 -233 rlineto
          -112 hlineto
          33 233 rlineto
          -73 hlineto
          -31 -233 rlineto
          -134 -66 125 hlineto
          -16 -121 rlineto
          -135 -65 hlineto
          222 186 rmoveto
          112 hlineto
          -17 -121 rlineto
          -111 hlineto
          endchar
        </CharString>
        <CharString name="o">
          -1 -12 callsubr
          -93 callsubr
          88 hmoveto
          -44 callsubr
        </CharString>
        <CharString name="oacute">
          -85 callsubr
          88 hmoveto
          -86 callsubr
          175 327 -18 callsubr
        </CharString>
        <CharString name="ocircumflex">
          -85 callsubr
          147 325 -57 callsubr
          8 -325 -47 callsubr
        </CharString>
        <CharString name="odieresis">
          -1 -12 callsubr
          58 90 callsubr
          44 88 1 100 callsubr
          -5 88 hintmask 11111010
          -99 callsubr
          88 hmoveto
          -86 callsubr
          1 376 rmoveto
          -31 26 -26 31 31 25 26 31 31 -25 -59 callsubr
          hintmask 11111100
          106 callsubr
          -78 callsubr
          endchar
        </CharString>
        <CharString name="oe">
          305 -26 callsubr
          hstem
          44 86 277 87 233 81 99 callsubr
          -135 78 -126 147 76 64 33 64 40 vhcurveto
          -64 41 71 -33 76 hhcurveto
          63 57 15 41 47 hvcurveto
          -35 61 rlineto
          -27 -31 -50 -20 -41 hhcurveto
          -111 -42 103 96 hvcurveto
          267 hlineto
          39 8 32 32 111 -75 78 -112 -72 -62 -39 -60 -37 hvcurveto
          64 -40 -65 35 -76 hhcurveto
          -144 -81 -128 -133 hvcurveto
          86 hmoveto
          85 35 113 104 102 36 -114 -84 -85 -34 -113 -104 -98 -41 117 81 vhcurveto
          371 70 rmoveto
          61 11 49 67 68 hhcurveto
          64 34 -50 -60 -19 -9 1 -15 hvcurveto
          endchar
        </CharString>
        <CharString name="ogonek">
          -258 -202 55 172 -20 hstem
          25 83 vstem
          25 -118 rmoveto
          -57 43 -27 53 49 45 21 29 39 vhcurveto
          -17 37 rlineto
          -13 -21 -34 -19 -25 hhcurveto
          -29 -20 14 31 57 82 34 41 25 hvcurveto
          -20 11 rlineto
          -64 -11 -122 -56 -76 vvcurveto
          endchar
        </CharString>
        <CharString name="ograve">
          -85 callsubr
          192 327 rmoveto
          78 hlineto
          -96 77 callsubr
          36 -479 -47 callsubr
        </CharString>
        <CharString name="one">
          -150 -1 68 430 -20 hstem
          164 83 vstem
          44 367 rmoveto
          120 37 rlineto
          -337 -117 -68 313 68 -113 430 -50 vlineto
          -171 -83 rlineto
          endchar
        </CharString>
        <CharString name="onehalf">
          576 -1 -21 22 72 176 59 124 63 238 -20 41 102 callsubr
          632 87 -64 callsubr
          644 22 rmoveto
          7 24 5 24 7 24 rrcurveto
          -225 hlineto
          31 21 186 141 131 vvcurveto
          66 -41 63 -107 -69 -52 -27 -21 -31 vhcurveto
          -23 -17 16 -24 16 -24 rlineto
          10 10 56 40 59 hhcurveto
          49 30 -30 -43 -81 -113 -119 -78 -68 hvcurveto
          -41 -36 -11 -9 -6 -6 -3 -1 rlinecurve
          -38 vlineto
          endchar
        </CharString>
        <CharString name="onequarter">
          557 -1 -21 43 -21 110 59 79 59 425 -20 41 102 callsubr
          533 80 -64 callsubr
          469 74 callsubr
          9 30 8 29 rlineto
          -75 314 -80 hlineto
          -114 -167 -115 -166 rlineto
          -40 vlineto
          125 117 rmoveto
          40 59 36 58 12 19 10 18 9 17 rlinecurve
          29 callsubr
          -144 vlineto
          endchar
        </CharString>
        <CharString name="ordfeminine">
          -222 279 50 58 57 -57 205 84 54 hstemhm
          10 66 110 63 hintmask 11011100
          10 476 rmoveto
          -55 38 -34 53 33 32 15 23 24 vhcurveto
          -21 7 16 -16 23 hhcurveto
          23 25 14 8 21 hvcurveto
          -15 44 -34 -10 rlineto
          -8 1 18 5 hvcurveto
          153 vlineto
          68 -33 42 -71 -47 -42 -15 -31 -37 vhcurveto
          33 -50 rlineto
          23 21 37 19 31 hhcurveto
          37 8 -25 -32 hvcurveto
          hintmask 10111100
          -27 vlineto
          -78 -98 -20 -96 hvcurveto
          249 -197 rmoveto
          50 -219 -50 vlineto
          36 199 rmoveto
          57 68 2 42 vhcurveto
          -14 vlineto
          hintmask 11011100
          -36 -28 -43 -40 -20 -22 11 23 vhcurveto
          endchar
        </CharString>
        <CharString name="ordmasculine">
          -205 279 50 66 52 238 52 hstem
          13 69 167 70 vstem
          13 566 rmoveto
          -92 54 -79 99 99 54 79 92 92 -54 79 -99 -96 -57 -80 -91 vhcurveto
          263 -287 rmoveto
          50 -219 -50 vlineto
          25 287 rmoveto
          52 21 67 63 61 22 -68 -51 -51 -22 -68 -61 -59 -25 70 49 vhcurveto
          endchar
        </CharString>
        <CharString name="oslash">
          0 -48 -21 56 63 396 63 44 -20 hstem
          44 85 278 86 99 callsubr
          -71 20 -72 49 -52 vhcurveto
          -59 -91 47 -31 56 86 rlineto
          -20 33 39 -10 39 hhcurveto
          148 77 125 136 72 -21 74 -51 52 hvcurveto
          49 80 -50 27 -44 -71 rlineto
          17 -32 -40 10 -36 hhcurveto
          -145 -79 -128 -133 hvcurveto
          85 hmoveto
          85 35 113 104 26 24 -8 -16 21 vhcurveto
          -181 -295 rlineto
          -20 35 -9 47 39 vvcurveto
          249 127 rmoveto
          21 -39 8 -45 -43 vvcurveto
          -85 -35 -113 -104 -28 -25 10 19 -21 vhcurveto
          endchar
        </CharString>
        <CharString name="otilde">
          -1 -12 callsubr
          64 37 callsubr
          44 88 273 88 hintmask 11010110
          -99 callsubr
          126 337 50 callsubr
          hintmask 11100110
          -62 callsubr
          hintmask 11001110
          -41 -46 -6 callsubr
          11 -337 -47 callsubr
        </CharString>
        <CharString name="overscore">
          -263 596 64 hstem
          289 596 rmoveto
          64 -304 -64 vlineto
          endchar
        </CharString>
        <CharString name="p">
          19 -195 -21 203 68 380 73 hstem
          81 82 259 88 vstem
          50 493 rmoveto
          23 -36 8 -65 -40 vvcurveto
          -568 96 vlineto
          -14 59 rlineto
          188 vlineto
          -31 33 46 -13 45 hhcurveto
          149 74 127 137 125 -66 132 -141 -57 -54 -28 -44 -35 hvcurveto
          -3 25 -7 22 -9 21 rrcurveto
          25 -135 rmoveto
          33 28 40 33 47 hhcurveto
          107 37 -99 -91 -88 -32 -102 -105 -87 -35 66 80 hvcurveto
          endchar
        </CharString>
        <CharString name="paragraph">
          -37 -158 54 114 54 600 54 hstemhm
          40 244 -222 54 113 55 61 54 hintmask 11110010
          40 520 rmoveto
          hintmask 11101110
          -108 85 -80 104 vhcurveto
          -379 vlineto
          -31 -25 -26 -31 -31 -26 26 103 callsubr
          vhcurveto
          54 vlineto
          -60 -51 -51 -60 -60 51 -51 60 43 36 24 35 19 hvcurveto
          -1 7 5 -1 5 hhcurveto
          60 51 51 60 hvcurveto
          654 56 54 -192 vlineto
          hintmask 11110010
          -126 -97 -62 -136 hvcurveto
          244 144 rmoveto
          61 -654 hlineto
          -37 callsubr
          -4 hlineto
          endchar
        </CharString>
        <CharString name="parenleft">
          87 callsubr
          44 88 vstem
          44 302 rmoveto
          -165 67 -151 107 -124 vhcurveto
          67 9 rlineto
          -104 129 -49 137 165 vvcurveto
          165 49 137 104 129 vhcurveto
          -67 10 rlineto
          -108 -124 -66 -152 -165 vvcurveto
          endchar
        </CharString>
        <CharString name="parenright">
          87 callsubr
          175 87 vstem
          88 -138 rmoveto
          107 124 67 151 165 vvcurveto
          165 -66 152 -108 124 vhcurveto
          -67 -10 rlineto
          104 -129 50 -135 -167 vvcurveto
          -167 -50 -135 -104 -129 vhcurveto
          endchar
        </CharString>
        <CharString name="partialdiff">
          18 -10 67 283 70 251 73 hstem
          47 92 245 103 vstem
          47 195 rmoveto
          -163 121 -42 77 93 149 67 276 260 -116 141 -152 -51 -36 -13 -13 -24 vhcurveto
          -14 -7 -12 -9 -10 -9 7 -10 rcurveline
          10 -15 9 -16 7 -10 7 5 8 5 10 4 rlinecurve
          7 17 24 8 35 hhcurveto
          83 90 -81 -184 5 hvcurveto
          3 -15 0 -14 1 -12 rrcurveto
          27 -25 -42 28 -69 hhcurveto
          -77 -128 -61 -154 hvcurveto
          92 -9 rmoveto
          76 50 78 77 55 32 -17 -33 33 vhcurveto
          -123 -8 -46 -110 -86 hhcurveto
          -78 -29 72 57 hvcurveto
          endchar
        </CharString>
        <CharString name="percent">
          326 88 callsubr
          58 hstemhm
          46 75 176 76 127 74 176 77 hintmask 01111111
          71 callsubr
          57 106 91 49 -14 48 -31 39 vhcurveto
          224 70 callsubr
          728 rlineto
          -433 hlineto
          -111 -53 -93 -101 1 callsubr
          379 -325 rmoveto
          hintmask 10111111
          -99 60 43 callsubr
          -52 -92 -101 vhcurveto
          74 76 callsubr
          -48 -19 -88 -64 -64 -29 81 53 vhcurveto
          endchar
        </CharString>
        <CharString name="period">
          -309 -10 132 hstem
          42 132 vstem
          42 56 -56 callsubr
          endchar
        </CharString>
        <CharString name="perthousand">
          611 88 callsubr
          56 hstemhm
          46 75 176 77 50 75 175 77 23 75 176 77 hintmask 0111111111000000
          71 callsubr
          58 106 91 49 -15 48 -31 39 vhcurveto
          183 70 callsubr
          726 rlineto
          -392 hlineto
          -111 -53 -92 -100 1 callsubr
          303 -325 rmoveto
          hintmask 1011111111000000
          -100 61 -97 108 101 57 106 91 96 -58 97 -105 -111 -53 -92 -101 vhcurveto
          36 callsubr
          21 -89 -49 -48 -19 -88 40 callsubr
          275 4 rmoveto
          -99 61 43 callsubr
          -53 -92 -101 vhcurveto
          75 76 callsubr
          -51 -20 -85 40 callsubr
          endchar
        </CharString>
        <CharString name="pi">
          132 -5 70 -68 -21 453 68 22 -20 hstemhm
          42 227 -89 89 114 84 hintmask 10111010
          42 362 rmoveto
          7 -3 8 -2 8 -2 24 -6 rcurveline
          11 47 38 29 48 4 rrcurveto
          hintmask 01110110
          -3 -13 -3 -11 -12 vvcurveto
          -214 vlineto
          -71 -32 -63 -59 -32 vhcurveto
          5 -6 4 -6 4 -7 12 -18 rcurveline
          147 51 8 172 139 vvcurveto
          91 170 vlineto
          -41 -80 -15 -86 -92 vvcurveto
          hintmask 10111010
          -78 27 -98 92 35 31 11 22 25 vhcurveto
          -4 7 -4 8 -3 8 -12 24 rcurveline
          -7 -13 -14 -3 -16 hhcurveto
          -50 -10 66 40 84 18 89 28 85 hvcurveto
          44 3 43 11 27 35 -25 41 rcurveline
          -19 -32 -30 -3 -36 hhcurveto
          -300 hlineto
          -97 -60 -55 -80 -5 hvcurveto
          endchar
        </CharString>
        <CharString name="plus">
          105 21 -21 215 68 214 -20 hstem
          282 70 vstem
          282 215 rmoveto
          -215 70 215 215 68 -215 214 -70 -214 -214 -68 vlineto
          endchar
        </CharString>
        <CharString name="plusminus">
          95 -1 70 193 70 164 -20 hstem
          282 70 vstem
          567 -1 38 callsubr
          214 263 rmoveto
          -165 70 165 215 70 -215 164 -70 -164 -214 -70 vlineto
          endchar
        </CharString>
        <CharString name="product">
          296 -207 -21 883 69 hstem
          147 96 347 96 vstem
          147 655 rmoveto
          -883 96 883 347 -883 96 883 117 69 -772 -69 vlineto
          endchar
        </CharString>
        <CharString name="q">
          19 -195 -21 204 72 386 63 -12 -20 hstemhm
          44 89 258 83 hintmask 11011100
          44 245 rmoveto
          -123 68 -134 139 59 38 16 39 43 vhcurveto
          -259 96 vlineto
          5 -13 52 2 vvcurveto
          585 vlineto
          11 0 12 1 11 vhcurveto
          2 35 rlineto
          -50 hlineto
          -18 -53 rlineto
          hintmask 11101100
          44 -36 -55 21 -56 hhcurveto
          -149 -69 -129 -135 hvcurveto
          89 3 rmoveto
          80 33 118 100 92 33 -66 -84 vhcurveto
          -181 vlineto
          -33 -28 -48 -22 -43 hhcurveto
          -101 -38 100 88 hvcurveto
          endchar
        </CharString>
        <CharString name="question">
          -99 -13 132 543 61 hstemhm
          120 132 -95 65 77 88 hintmask 11011000
          78 634 rmoveto
          19 23 44 9 29 hhcurveto
          67 58 -43 -71 -79 -73 -46 -69 -11 hvcurveto
          -195 65 123 vlineto
          20 0 3 24 8 vhcurveto
          77 24 64 77 82 vvcurveto
          113 -103 56 -101 -37 -63 -8 -24 -32 vhcurveto
          hintmask 11101000
          69 -638 -56 callsubr
          endchar
        </CharString>
        <CharString name="questiondown">
          -106 -126 61 543 132 hstemhm
          48 88 47 132 -102 65 hintmask 11101000
          48 43 rmoveto
          -113 103 -56 101 37 63 8 24 32 vhcurveto
          -27 57 rlineto
          -19 -23 -44 -9 -29 hhcurveto
          -67 -58 43 71 81 73 42 69 13 hvcurveto
          195 -65 -123 vlineto
          -20 0 -3 -24 -8 vhcurveto
          -77 -24 -64 -77 -82 vvcurveto
          hintmask 11110000
          135 501 5 callsubr
        </CharString>
        <CharString name="quotedbl">
          -170 462 -21 293 -20 hstem
          69 83 63 84 vstem
          69 556 -31 callsubr
          4 6 29 7 28 9 36 rcurveline
          95 callsubr
          -83 vlineto
          146 -178 -11 callsubr
          39 rcurveline
          9 38 4 17 rlineto
          178 -84 vlineto
          endchar
        </CharString>
        <CharString name="quotedblbase">
          -60 -106 8 callsubr
          75 27 callsubr
          52 27 callsubr
          hintmask 11101000
          75 -20 callsubr
          hintmask 11011000
          -35 callsubr
          189 hmoveto
          -32 callsubr
          -16 rlineto
          hintmask 11100100
          -35 callsubr
          endchar
        </CharString>
        <CharString name="quotedblleft">
          -50 52 callsubr
          71 87 -87 137 58 87 -87 137 hintmask 11011000
          71 567 rmoveto
          -27 callsubr
          hintmask 11010100
          -50 callsubr
          195 hmoveto
          -27 callsubr
          hintmask 11100100
          -50 callsubr
          endchar
        </CharString>
        <CharString name="quotedblright">
          -50 52 callsubr
          79 27 callsubr
          58 27 callsubr
          hintmask 11101000
          79 673 rmoveto
          -32 callsubr
          -17 rlineto
          hintmask 11011000
          -36 callsubr
          195 hmoveto
          -32 callsubr
          -17 rlineto
          hintmask 11100100
          -36 callsubr
          endchar
        </CharString>
        <CharString name="quoteleft">
          -251 52 callsubr
          71 137 vstemhm
          71 567 rmoveto
          -27 callsubr
          hintmask 11100000
          -50 callsubr
          endchar
        </CharString>
        <CharString name="quoteright">
          -251 52 callsubr
          75 27 callsubr
          hintmask 11100000
          75 673 rmoveto
          -32 callsubr
          -17 rlineto
          hintmask 11010000
          -67 callsubr
          hintmask 11100000
          -4 callsubr
          endchar
        </CharString>
        <CharString name="quotesinglbase">
          -261 -106 8 callsubr
          69 27 callsubr
          hintmask 11100000
          69 -61 callsubr
        </CharString>
        <CharString name="quotesingle">
          -311 466 -21 293 -20 hstem
          71 84 vstem
          71 560 -11 callsubr
          40 rcurveline
          9 36 rlineto
          95 callsubr
          -84 -178 vlineto
          endchar
        </CharString>
        <CharString name="r">
          -188 21 -21 418 88 hstem
          81 83 vstem
          49 495 rmoveto
          23 -34 9 -62 -39 vvcurveto
          -360 83 330 vlineto
          51 35 42 37 64 hhcurveto
          20 88 rlineto
          -67 -61 -38 -55 -35 hvcurveto
          -3 33 -8 31 -12 29 -90 -11 rcurveline
          endchar
        </CharString>
        <CharString name="radical">
          68 -209 -21 1178 -20 hstem
          -26 183 rmoveto
          86 30 148 -443 rlineto
          83 hlineto
          356 1178 rlineto
          -72 hlineto
          -320 -1060 -138 415 -163 -58 rlineto
          endchar
        </CharString>
        <CharString name="registered">
          -78 405 33 -33 220 -133 225 51 33 hstemhm
          33 33 84 50 66 50 81 33 hintmask 10111111
          33 603 rmoveto
          -109 89 -89 109 108 91 89 109 109 -91 89 -108 -109 -89 -89 -109 vhcurveto
          33 hmoveto
          91 74 74 91 92 74 -74 -91 -91 -74 -74 -92 -91 -74 74 91 vhcurveto
          134 -111 rmoveto
          96 18 vlineto
          65 -96 rlineto
          60 hlineto
          -73 104 rlineto
          25 9 21 20 28 vvcurveto
          51 -35 13 -43 vhcurveto
          -88 -225 hlineto
          50 188 rmoveto
          31 hlineto
          19 16 -8 -17 hvcurveto
          hintmask 01011111
          -23 -17 -7 -25 vhcurveto
          -24 hlineto
          endchar
        </CharString>
        <CharString name="ring">
          -256 551 51 96 52 hstem
          41 51 96 51 vstem
          41 650 rmoveto
          -53 46 -46 53 48 callsubr
          vhcurveto
          51 hmoveto
          -30 callsubr
        </CharString>
        <CharString name="s">
          -107 -12 callsubr
          -71 callsubr
          -35 -61 rlineto
          endchar
        </CharString>
        <CharString name="scaron">
          -107 -12 callsubr
          219 -20 -71 callsubr
          87 462 -68 callsubr
        </CharString>
        <CharString name="section">
          -40 -135 59 749 59 hstemhm
          53 76 -19 80 136 83 -29 77 hintmask 11101000
          53 356 rmoveto
          -132 273 -120 -103 vvcurveto
          -45 -34 -32 -45 -38 -31 25 27 -24 vhcurveto
          -23 28 -60 -47 rlineto
          -53 41 63 -39 69 hhcurveto
          87 78 53 93 51 -21 34 -32 36 hvcurveto
          hintmask 11010100
          60 19 41 46 64 152 -267 95 99 vvcurveto
          39 34 27 37 43 37 -34 -33 23 vhcurveto
          54 40 rlineto
          56 -35 -54 30 -65 hhcurveto
          -80 -74 -52 -84 -51 21 -26 32 -36 hvcurveto
          hintmask 11100100
          -64 -16 -46 -42 -69 vvcurveto
          76 16 rmoveto
          42 46 27 33 vhcurveto
          120 -102 rlineto
          27 -23 25 -38 -36 vvcurveto
          -36 -38 -29 -32 -5 vhcurveto
          -47 38 rlineto
          -57 48 -77 70 44 vvcurveto
          endchar
        </CharString>
        <CharString name="semicolon">
          -203 -106 -21 251 178 0 132 hstemhm
          91 27 callsubr
          hintmask 11010000
          91 -20 callsubr
          hintmask 11001000
          -91 callsubr
          hintmask 10110000
          -4 callsubr
          5 304 5 callsubr
        </CharString>
        <CharString name="seven">
          -112 -164 -21 607 75 hstem
          308 422 rmoveto
          -270 -607 rlineto
          89 hlineto
          278 640 rlineto
          42 -370 vlineto
          -20 -75 rlineto
          endchar
        </CharString>
        <CharString name="six">
          -1 -13 63 287 68 327 -20 hstem
          49 92 256 91 vstem
          49 235 rmoveto
          -130 85 -118 138 125 91 90 125 109 -75 94 -114 -51 -52 -19 -32 -39 vhcurveto
          43 154 127 112 143 61 -21 51 rcurveline
          -44 -12 -46 -26 -39 -24 rrcurveto
          -155 -96 -116 -151 -188 vvcurveto
          92 16 rmoveto
          6 0 6 1 7 vhcurveto
          36 35 47 31 52 hhcurveto
          76 45 -63 -72 -77 -37 -75 -86 -97 -36 100 82 hvcurveto
          endchar
        </CharString>
        <CharString name="slash">
          -211 12 -21 736 -20 hstem
          64 -9 rmoveto
          267 736 rlineto
          -67 hlineto
          -269 -736 rlineto
          endchar
        </CharString>
        <CharString name="space">
          -307 endchar
        </CharString>
        <CharString name="sterling">
          44 0 69 290 68 242 69 hstem
          149 94 vstem
          535 hmoveto
          69 -292 290 129 68 -129 120 vlineto
          66 34 56 71 47 34 -32 -39 20 vhcurveto
          75 42 rlineto
          61 -39 -64 37 -72 hhcurveto
          -120 -80 -70 -123 hvcurveto
          -118 -76 -68 76 -290 -93 -69 vlineto
          endchar
        </CharString>
        <CharString name="summation">
          189 -228 101 781 69 hstem
          55 -228 rmoveto
          616 101 -532 hlineto
          157 209 155 212 -137 180 -138 180 rlineto
          485 69 -606 -69 hlineto
          145 -194 145 -194 -145 -198 -145 -198 rlineto
          endchar
        </CharString>
        <CharString name="t">
          -210 -11 64 381 50 -50 63 -63 205 hstemhm
          94 83 hintmask 11001000
          94 434 rmoveto
          -316 vlineto
          -83 29 -46 85 39 27 7 11 33 vhcurveto
          -14 56 rlineto
          -5 -20 -22 -5 -21 hhcurveto
          -43 -10 24 39 hvcurveto
          318 112 vlineto
          hintmask 10101000
          18 63 rlineto
          -130 hlineto
          hintmask 10011000
          47 11 50 11 45 vhcurveto
          -63 hlineto
          hintmask 11001000
          -13 -63 -23 -89 -80 -3 rrcurveto
          -50 vlineto
          endchar
        </CharString>
        <CharString name="thorn">
          20 -191 -21 201 60 389 66 258 -20 hstem
          84 82 257 88 vstem
          70 762 rmoveto
          -3 4 -14 4 -13 vhcurveto
          4 -18 -17 callsubr
          -916 82 255 vlineto
          -36 34 43 -18 51 hhcurveto
          138 79 124 140 121 -63 130 -131 -57 -50 -22 -44 -44 hvcurveto
          324 vlineto
          -390 vmoveto
          36 31 45 30 49 hhcurveto
          100 32 -106 -83 -80 -31 -120 -101 -81 -44 71 84 hvcurveto
          endchar
        </CharString>
        <CharString name="three">
          -127 -196 54 589 62 hstemhm
          255 91 -75 91 hintmask 11010000
          -46 -196 rmoveto
          166 242 70 203 87 -47 71 -90 -8 hvcurveto
          -13 -1 rlineto
          hintmask 11100000
          53 35 81 69 69 vvcurveto
          72 -47 38 -69 -81 -41 -24 -49 -65 vhcurveto
          47 -39 rlineto
          24 27 51 26 36 hhcurveto
          31 20 -17 -32 -83 -107 -76 -66 -32 hvcurveto
          27 -56 rlineto
          7 21 25 4 23 hhcurveto
          hintmask 11010000
          60 33 -29 -61 -140 -212 -74 -114 hvcurveto
          endchar
        </CharString>
        <CharString name="threequarters">
          539 -1 -21 43 -21 110 59 67 51 205 249 -58 58 12 -20 hstemhm
          292 80 -59 81 408 80 hintmask 1111100011000000
          73 236 57 callsubr
          40 -64 7 vhcurveto
          hintmask 1111010101000000
          44 16 52 42 callsubr
          16 -23 16 -23 rlineto
          24 29 54 26 43 hhcurveto
          41 26 -15 -31 -63 -80 -26 -55 -11 hvcurveto
          4 -23 4 -24 rlineto
          3 4 0 1 3 hvcurveto
          hintmask 1111100011000000
          7 8 1 9 96 callsubr
          -163 -8 hvcurveto
          331 -309 rmoveto
          154 388 rlineto
          hintmask 1111001011000000
          154 387 rlineto
          -62 hlineto
          -154 -387 -154 -388 rlineto
          470 74 callsubr
          8 30 9 29 rlineto
          -75 314 -81 hlineto
          -228 -333 rlineto
          -40 vlineto
          165 177 rmoveto
          27 41 23 37 17 33 rrcurveto
          29 callsubr
          -145 vlineto
          endchar
        </CharString>
        <CharString name="tilde">
          -184 573 37 callsubr
          hintmask 01000000
          65 585 50 callsubr
          hintmask 10000000
          -62 callsubr
          hintmask 00100000
          -41 -46 -6 callsubr
          endchar
        </CharString>
        <CharString name="trademark">
          31 494 224 -204 -21 188 37 hstemhm
          120 50 94 42 149 49 hintmask 01111100
          120 681 rmoveto
          hintmask 10011100
          -187 50 vlineto
          hintmask 01111100
          187 72 37 -193 -37 vlineto
          257 -188 rmoveto
          155 vlineto
          30 -76 30 -79 rlineto
          30 hlineto
          5 13 27 69 27 69 rlineto
          -151 49 225 -64 vlineto
          -55 -145 -55 145 rlineto
          -66 -225 hlineto
          endchar
        </CharString>
        <CharString name="two">
          -68 -1 69 378 63 hstem
          309 95 vstem
          425 -1 rmoveto
          20 69 rlineto
          -304 hlineto
          156 134 rlineto
          51 43 56 59 71 vvcurveto
          88 -72 46 -81 -68 -78 -34 -48 -48 vhcurveto
          41 -46 rlineto
          32 39 51 33 52 hhcurveto
          41 28 -32 -40 -35 -19 -31 -24 -24 hvcurveto
          -232 -232 rlineto
          -53 vlineto
          endchar
        </CharString>
        <CharString name="u">
          -16 callsubr
          hstemhm
          80 83 219 83 hintmask 10111000
          -83 callsubr
          hintmask 01111000
          -90 callsubr
          hintmask 10111000
          -96 callsubr
          -96 vlineto
          endchar
        </CharString>
        <CharString name="uacute">
          -89 callsubr
          141 78 -33 callsubr
          -95 67 callsubr
        </CharString>
        <CharString name="ucircumflex">
          -16 callsubr
          243 -103 callsubr
          25 69 rmoveto
          76 81 85 callsubr
          -84 hlineto
          41 callsubr
          endchar
        </CharString>
        <CharString name="udieresis">
          -16 callsubr
          90 90 callsubr
          80 83 -34 100 callsubr
          -24 83 hintmask 10111010
          -83 callsubr
          hintmask 01111010
          -90 callsubr
          hintmask 10111001
          -96 callsubr
          vlineto
          hintmask 10110110
          -34 127 rmoveto
          -31 26 -26 31 31 25 26 31 31 -25 26 -31 47 callsubr
          31 26 26 31 31 -26 26 -31 -32 -25 -25 -32 vhcurveto
          endchar
        </CharString>
        <CharString name="ugrave">
          -89 callsubr
          72 78 -52 callsubr
          endchar
        </CharString>
        <CharString name="underscore">
          -38 -126 60 hstem
          -9 -126 rmoveto
          518 60 -518 hlineto
          endchar
        </CharString>
        <CharString name="uni00AD">
          21 callsubr
        </CharString>
        <CharString name="uni00B2">
          -80 434 68 368 58 hstem
          310 84 vstem
          386 434 rmoveto
          19 68 rlineto
          -234 hlineto
          41 29 37 31 33 33 rrcurveto
          56 56 56 75 75 vvcurveto
          60 -38 67 -109 -56 -41 -16 -16 -31 vhcurveto
          -17 -9 -16 -11 -13 -12 32 -47 rcurveline
          11 10 13 9 13 7 rrcurveto
          13 23 31 14 35 hhcurveto
          51 28 -32 -43 -63 -63 -84 -63 -63 hvcurveto
          -37 -38 -42 -38 -47 -37 rrcurveto
          -38 vlineto
          endchar
        </CharString>
        <CharString name="uni00B3">
          -80 423 51 205 249 -58 58 hstemhm
          295 77 -58 58 -58 80 hintmask 11000100
          73 423 57 callsubr
          39 -63 8 vhcurveto
          hintmask 10110000
          44 16 51 42 callsubr
          32 -46 rlineto
          24 32 52 26 42 hhcurveto
          43 27 -16 -31 -61 -83 -27 -55 -11 hvcurveto
          8 -47 rlineto
          3 4 0 1 3 hvcurveto
          hintmask 11001000
          7 7 1 11 96 callsubr
          -164 -8 hvcurveto
          endchar
        </CharString>
        <CharString name="uni00B9">
          -80 434 59 425 102 callsubr
          vstem
          86 828 -63 callsubr
          endchar
        </CharString>
        <CharString name="uni2126">
          245 0 69 596 69 hstem
          68 98 450 98 vstem
          314 hmoveto
          53 vlineto
          -108 42 -40 132 121 vvcurveto
          146 57 171 168 168 57 -171 -146 -121 -40 -131 -109 -43 vhcurveto
          -53 258 69 -72 vlineto
          -67 -5 rlineto
          79 58 49 119 120 vvcurveto
          204 -110 169 -213 -213 -110 -169 -204 -121 47 -117 81 -59 vhcurveto
          -67 5 rlineto
          -73 -69 hlineto
          endchar
        </CharString>
        <CharString name="uni2206">
          94 0 66 657 -20 hstem
          614 hmoveto
          53 vlineto
          -130 335 -130 335 rlineto
          -78 hlineto
          -130 -335 -131 -335 rlineto
          -53 vlineto
          284 605 rmoveto
          11 -29 11 -44 13 -36 40 -104 rcurveline
          42 -110 42 -110 41 -106 rlineto
          -402 hlineto
          endchar
        </CharString>
        <CharString name="uniE000">
          -42 21 -21 495 -20 hstem
          0 vmoveto
          495 495 -495 hlineto
          endchar
        </CharString>
        <CharString name="uniFB01">
          59 callsubr
          83 227 82 vstem
          95 434 rmoveto
          -435 83 435 227 -435 82 498 -310 vlineto
          99 20 111 112 47 35 -29 -47 9 vhcurveto
          83 25 rlineto
          76 -27 -72 37 -77 hhcurveto
          -113 -65 -63 -107 -20 hvcurveto
          -4 -24 -3 -25 -5 -24 -8 -37 -40 0 -29 -3 rrcurveto
          -52 vlineto
          endchar
        </CharString>
        <CharString name="uniFB02">
          59 callsubr
          82 224 82 vstem
          95 434 68 callsubr
          63 rlineto
          -143 hlineto
          88 4 122 127 40 53 -24 -48 vhcurveto
          -636 82 765 vlineto
          -65 -26 rlineto
          21 -28 -49 10 -35 hhcurveto
          -113 -66 -65 -105 -19 hvcurveto
          -4 -24 -2 -25 30 callsubr
        </CharString>
        <CharString name="v">
          -82 15 -21 503 -20 hstem
          189 -6 rmoveto
          76 hlineto
          178 503 rlineto
          -78 hlineto
          -132 -378 -133 378 rlineto
          -88 hlineto
          endchar
        </CharString>
        <CharString name="w">
          121 15 -21 503 -20 hstem
          160 -6 rmoveto
          61 hlineto
          107 344 101 -344 rlineto
          60 hlineto
          157 503 rlineto
          -74 hlineto
          -105 -340 -102 340 rlineto
          -59 hlineto
          -106 -340 -101 340 rlineto
          -86 hlineto
          endchar
        </CharString>
        <CharString name="x">
          -91 20 -21 498 -20 hstem
          92 -1 rmoveto
          126 193 123 -193 rlineto
          95 hlineto
          -169 264 154 234 rlineto
          -81 hlineto
          -115 -172 -109 172 rlineto
          -95 hlineto
          155 -243 -166 -255 rlineto
          endchar
        </CharString>
        <CharString name="y">
          -81 -217 67 647 -20 hstem
          -77 callsubr
          endchar
        </CharString>
        <CharString name="yacute">
          -81 -217 67 647 -20 246 -20 hstem
          -77 callsubr
          265 74 -48 callsubr
          endchar
        </CharString>
        <CharString name="ydieresis">
          -81 -217 67 647 -20 94 114 hstem
          98 114 50 113 vstem
          -77 callsubr
          86 131 rmoveto
          -31 26 -80 callsubr
          -26 -26 -31 vhcurveto
          164 6 callsubr
        </CharString>
        <CharString name="yen">
          -35 21 -21 163 48 60 47 -47 225 hstemhm
          208 81 hintmask 11101000
          157 318 rmoveto
          -95 -47 128 hlineto
          18 -25 rlineto
          -35 -146 -48 146 -163 81 163 148 48 -148 35 vlineto
          18 25 rlineto
          130 47 -98 hlineto
          hintmask 11011000
          121 178 rlineto
          -76 hlineto
          -126 -189 -135 189 rlineto
          -91 hlineto
          endchar
        </CharString>
        <CharString name="z">
          -92 0 63 370 64 -21 callsubr
          endchar
        </CharString>
        <CharString name="zcaron">
          -92 0 63 370 64 230 -20 -21 callsubr
          154 551 -68 callsubr
        </CharString>
        <CharString name="zero">
          41 -12 callsubr
          hstem
          49 90 301 91 vstem
          49 248 rmoveto
          -144 91 -117 150 150 91 117 144 144 -91 117 -150 -151 -90 -117 -144 vhcurveto
          90 hmoveto
          102 32 96 119 121 29 -95 -103 -103 -29 -95 -121 -120 -31 95 103 vhcurveto
          endchar
        </CharString>
</ttFont>
